<svg width="161" height="121" viewBox="0 0 161 121" fill="none" xmlns="http://www.w3.org/2000/svg">
<path d="M25.4911 0.289337C11.684 0.289337 0.49115 11.4822 0.49115 25.2893V95.2893C0.49115 109.096 11.684 120.289 25.4911 120.289H95.4911C109.298 120.289 120.491 109.096 120.491 95.2893V85.5384L144.336 104.161C150.902 109.288 160.491 104.61 160.491 96.2792V24.299C160.491 15.9682 150.902 11.29 144.336 16.4177L120.491 35.0403V25.2893C120.491 11.4822 109.298 0.289337 95.4911 0.289337H25.4911ZM120.491 47.7286L150.491 24.299V96.2792L120.491 72.8501V47.7286ZM110.491 25.2893V95.2893C110.491 103.574 103.775 110.289 95.4911 110.289H25.4911C17.2069 110.289 10.4911 103.574 10.4911 95.2893V25.2893C10.4911 17.0051 17.2069 10.2893 25.4911 10.2893H95.4911C103.775 10.2893 110.491 17.0051 110.491 25.2893Z" fill="#0078D4"/>
</svg>
