<svg width="132" height="121" viewBox="0 0 132 121" fill="none" xmlns="http://www.w3.org/2000/svg">
<path fill-rule="evenodd" clip-rule="evenodd" d="M54.1963 7.19137C59.3729 -2.01136 72.6227 -2.01133 77.7992 7.19138L130.066 100.111C135.143 109.137 128.621 120.289 118.265 120.289H13.7307C3.37464 120.289 -3.14794 109.137 1.92922 100.111L54.1963 7.19137ZM62.0639 11.6169C63.7895 8.54935 68.2061 8.54934 69.9316 11.6169L122.199 104.536C123.891 107.545 121.717 111.262 118.265 111.262H13.7307C10.2786 111.262 8.10446 107.545 9.79684 104.536L62.0639 11.6169Z" fill="#0078D4"/>
<path d="M65.9978 39.3481C68.4905 39.3481 70.5112 41.3688 70.5112 43.8615V73.9512C70.5112 76.4439 68.4905 78.4646 65.9978 78.4646C63.5051 78.4646 61.4843 76.4439 61.4843 73.9512V43.8615C61.4843 41.3688 63.5051 39.3481 65.9978 39.3481Z" fill="#D13438"/>
<path d="M65.9978 99.5274C69.3214 99.5274 72.0157 96.8331 72.0157 93.5095C72.0157 90.1859 69.3214 87.4915 65.9978 87.4915C62.6741 87.4915 59.9798 90.1859 59.9798 93.5095C59.9798 96.8331 62.6741 99.5274 65.9978 99.5274Z" fill="#D13438"/>
</svg>
