<svg width="121" height="121" viewBox="0 0 121 121" fill="none" xmlns="http://www.w3.org/2000/svg">
<path d="M68 90.2893C63.8579 90.2893 60.5 93.6472 60.5 97.7893V107.789C60.5 111.931 63.8579 115.289 68 115.289C72.1421 115.289 75.5 111.931 75.5 107.789V97.7893C75.5 93.6472 72.1421 90.2893 68 90.2893Z" fill="#D13438"/>
<path d="M80.5 82.7893C80.5 78.6472 83.8579 75.2893 88 75.2893C92.1421 75.2893 95.5 78.6472 95.5 82.7893V107.789C95.5 111.931 92.1421 115.289 88 115.289C83.8579 115.289 80.5 111.931 80.5 107.789V82.7893Z" fill="#0078D4"/>
<path d="M108 60.2893C103.858 60.2893 100.5 63.6472 100.5 67.7893V107.789C100.5 111.931 103.858 115.289 108 115.289C112.142 115.289 115.5 111.931 115.5 107.789V67.7893C115.5 63.6472 112.142 60.2893 108 60.2893Z" fill="#409640"/>
<path fill-rule="evenodd" clip-rule="evenodd" d="M65.5 59.0393H99.0732C100.774 57.3039 102.978 56.0624 105.448 55.55C104.279 30.3562 83.4829 10.2893 58 10.2893C31.7665 10.2893 10.5 31.5558 10.5 57.7893C10.5 83.1843 30.4286 103.925 55.5 105.225V97.7893L55.5002 97.7125C34.5733 96.4221 18 79.0412 18 57.7893C18 36.1161 35.237 18.4689 56.75 17.8085V50.2893C56.75 55.1218 60.6675 59.0393 65.5 59.0393ZM64.25 50.2893C64.25 50.9797 64.8096 51.5393 65.5 51.5393H97.5146C94.8336 34.4531 81.3363 20.9557 64.25 18.2748V50.2893Z" fill="#0078D4"/>
</svg>
