<svg width="36" height="40" viewBox="0 0 36 40" fill="none" xmlns="http://www.w3.org/2000/svg">
<g filter="url(#filter0_d_357_4460)">
<path d="M22.1604 16.3624C22.1604 17.9454 20.8966 19.2286 19.3375 19.2286H12.823C11.2639 19.2286 10 17.9454 10 16.3624V8.8662C10 7.28324 11.2639 6 12.823 6H19.3375C20.8966 6 22.1604 7.28324 22.1604 8.8662V16.3624Z" fill="#949494"/>
<path d="M27.1653 7.2288C27.2988 7.38824 27.3721 7.59068 27.3721 7.79993V17.4285C27.3721 17.9155 26.9832 18.3104 26.5035 18.3104C26.2974 18.3104 26.098 18.236 25.941 18.1005L23.029 15.5872V9.64046L25.9409 7.12795C26.3065 6.81252 26.8546 6.85767 27.1653 7.2288Z" fill="#949494"/>
<path fill-rule="evenodd" clip-rule="evenodd" d="M30.8935 7.98652C30.185 6.42546 29.1635 5.01205 27.8866 3.82605C26.6055 2.62933 25.0952 1.6795 23.4382 1.02843C21.7145 0.345207 19.8855 -1.61391e-08 18 0C16.1145 1.61391e-08 14.2855 0.345208 12.5618 1.02483C10.8946 1.68289 9.40054 2.62501 8.11344 3.82245C6.83734 5.00912 5.81592 6.42237 5.10645 7.98292C4.37258 9.60108 4 11.3199 4 13.0891C4 15.6278 4.63602 18.1558 5.88548 20.5938C6.89032 22.5535 8.29409 24.463 10.0629 26.2789C13.0849 29.3786 16.2538 31.2736 17.1532 31.7807C17.4085 31.9247 17.6997 32.0005 17.9962 32C18.2898 32 18.5796 31.9281 18.8392 31.7807C19.7387 31.2736 22.9075 29.3786 25.9296 26.2789C27.6984 24.4666 29.1022 22.5535 30.107 20.5938C31.364 18.1593 32 15.635 32 13.0927C32 11.3235 31.6274 9.60467 30.8935 7.98652ZM19.3375 19.2286C20.8966 19.2286 22.1604 17.9454 22.1604 16.3624V8.8662C22.1604 7.28324 20.8966 6 19.3375 6H12.823C11.2639 6 10 7.28324 10 8.8662V16.3624C10 17.9454 11.2639 19.2286 12.823 19.2286H19.3375ZM27.3721 7.79993C27.3721 7.59068 27.2988 7.38824 27.1653 7.2288C26.8546 6.85767 26.3065 6.81252 25.9409 7.12795L23.029 9.64046V15.5872L25.941 18.1005C26.098 18.236 26.2974 18.3104 26.5035 18.3104C26.9832 18.3104 27.3721 17.9155 27.3721 17.4285V7.79993Z" fill="#004578"/>
</g>
<defs>
<filter id="filter0_d_357_4460" x="0" y="0" width="36" height="40" filterUnits="userSpaceOnUse" color-interpolation-filters="sRGB">
<feFlood flood-opacity="0" result="BackgroundImageFix"/>
<feColorMatrix in="SourceAlpha" type="matrix" values="0 0 0 0 0 0 0 0 0 0 0 0 0 0 0 0 0 0 127 0" result="hardAlpha"/>
<feOffset dy="4"/>
<feGaussianBlur stdDeviation="2"/>
<feComposite in2="hardAlpha" operator="out"/>
<feColorMatrix type="matrix" values="0 0 0 0 0 0 0 0 0 0 0 0 0 0 0 0 0 0 0.25 0"/>
<feBlend mode="normal" in2="BackgroundImageFix" result="effect1_dropShadow_357_4460"/>
<feBlend mode="normal" in="SourceGraphic" in2="effect1_dropShadow_357_4460" result="shape"/>
</filter>
</defs>
</svg>
