<svg width="36" height="40" viewBox="0 0 36 40" fill="none" xmlns="http://www.w3.org/2000/svg">
<g filter="url(#filter0_d_1438_3113)">
<path d="M30.8935 9.98652C30.185 8.42546 29.1635 7.01205 27.8866 5.82605C26.6055 4.62933 25.0952 3.6795 23.4382 3.02843C21.7145 2.34521 19.8855 2 18 2C16.1145 2 14.2855 2.34521 12.5618 3.02483C10.8946 3.68289 9.40054 4.62501 8.11344 5.82245C6.83734 7.00912 5.81592 8.42237 5.10645 9.98292C4.37258 11.6011 4 13.3199 4 15.0891C4 17.6278 4.63602 20.1557 5.88548 22.5938C6.89032 24.5535 8.29409 26.463 10.0629 28.2789C13.0849 31.3786 16.2538 33.2736 17.1532 33.7807C17.4085 33.9247 17.6997 34.0005 17.9962 34C18.2898 34 18.5796 33.9281 18.8392 33.7807C19.7387 33.2736 22.9075 31.3786 25.9296 28.2789C27.6984 26.4666 29.1021 24.5535 30.107 22.5938C31.364 20.1593 32 17.635 32 15.0927C32 13.3235 31.6274 11.6047 30.8935 9.98652ZM18 31.2419C15.5199 29.7353 6.70968 23.7696 6.70968 15.0927C6.70968 12.2915 7.88011 9.65929 10.0065 7.67435C12.1403 5.68581 14.978 4.58906 18 4.58906C21.022 4.58906 23.8597 5.68581 25.9935 7.67794C28.1199 9.65929 29.2903 12.2915 29.2903 15.0927C29.2903 23.7696 20.4801 29.7353 18 31.2419Z" fill="#0078D4"/>
<path d="M18 31.2419C15.5199 29.7353 6.70968 23.7696 6.70968 15.0927C6.70968 12.2915 7.88011 9.65929 10.0065 7.67435C12.1403 5.68581 14.978 4.58906 18 4.58906C21.022 4.58906 23.8597 5.68581 25.9935 7.67794C28.1199 9.65929 29.2903 12.2915 29.2903 15.0927C29.2903 23.7696 20.4801 29.7353 18 31.2419Z" fill="#0078D4"/>
<path fill-rule="evenodd" clip-rule="evenodd" d="M15.1139 5.98969L14.5021 9.24313H21.4208L20.9401 5.98969H15.1139ZM14.9637 8.88949L15.4425 6.34332H20.5994L20.9756 8.88949H14.9637Z" fill="white"/>
<path fill-rule="evenodd" clip-rule="evenodd" d="M15.0208 4.99951C14.9013 4.99951 14.7847 5.03278 14.6866 5.09484L13.8277 5.63865C13.7282 5.70163 13.6528 5.79116 13.6119 5.89483L11.9924 9.9983C11.9791 10.0321 11.9695 10.0671 11.964 10.1026L11.0097 16.2025C10.9961 16.2896 11.0065 16.3784 11.0401 16.4609L13.5604 22.6529C13.6452 22.8612 13.8638 22.9995 14.1084 22.9995H21.8254C22.0679 22.9995 22.2852 22.8635 22.3715 22.6577L24.9657 16.466C25.0017 16.3802 25.0125 16.2873 24.9971 16.1965L23.9668 10.1333C23.9612 10.1003 23.9522 10.0679 23.9399 10.0365L22.3193 5.89595C22.2785 5.79165 22.2028 5.70155 22.1027 5.63829L21.2431 5.09468C21.1451 5.03272 21.0286 4.99951 20.9092 4.99951H15.0208ZM14.9094 5.38492C14.9421 5.36424 14.981 5.35315 15.0208 5.35315H20.9092C20.949 5.35315 20.9878 5.36422 21.0205 5.38487L21.8801 5.92848C21.9135 5.94957 21.9387 5.9796 21.9523 6.01437L23.5729 10.1549C23.577 10.1654 23.58 10.1762 23.5819 10.1872L24.6122 16.2504C24.6173 16.2807 24.6137 16.3117 24.6017 16.3403L22.0075 22.5319C21.9787 22.6005 21.9063 22.6459 21.8254 22.6459H14.1084C14.0269 22.6459 13.954 22.5998 13.9257 22.5304L11.4055 16.3384C11.3943 16.3108 11.3908 16.2812 11.3953 16.2522L12.3496 10.1524C12.3514 10.1405 12.3546 10.1289 12.3591 10.1176L13.9785 6.01412C13.9921 5.97957 14.0173 5.94972 14.0504 5.92873L14.9094 5.38492Z" fill="white"/>
<path fill-rule="evenodd" clip-rule="evenodd" d="M15.0208 5.35315C14.981 5.35315 14.9421 5.36424 14.9094 5.38492L14.0504 5.92873C14.0173 5.94972 13.9921 5.97957 13.9785 6.01412L12.3591 10.1176C12.3546 10.1289 12.3514 10.1405 12.3496 10.1524L11.3953 16.2522C11.3908 16.2812 11.3943 16.3108 11.4055 16.3384L13.9257 22.5304C13.954 22.5998 14.0269 22.6459 14.1084 22.6459H21.8254C21.9063 22.6459 21.9787 22.6005 22.0075 22.5319L24.6017 16.3403C24.6137 16.3117 24.6173 16.2807 24.6122 16.2504L23.5819 10.1872C23.58 10.1762 23.577 10.1654 23.5729 10.1549L21.9523 6.01437C21.9387 5.9796 21.9135 5.94957 21.8801 5.92848L21.0205 5.38487C20.9878 5.36422 20.949 5.35315 20.9092 5.35315H15.0208ZM17.3035 10.693H14.4214V10.3394H17.3035V10.693ZM19.874 9.87967H18.394V10.5162H19.874V9.87967ZM20.1077 9.87967H21.5877V10.5162H20.1077V9.87967ZM21.5877 10.7284H20.1077V11.3649H21.5877V10.7284ZM18.394 10.7284H19.874V11.3649H18.394V10.7284ZM16.7291 21.196V18.144H17.9611C19.0018 18.144 19.8274 17.8838 20.438 17.3634C21.0487 16.8429 21.354 16.1739 21.354 15.3561C21.354 14.5383 21.0616 13.9044 20.4767 13.4544C19.8919 13.0045 19.0684 12.7795 18.0062 12.7795H15.2003V21.196H16.7291ZM20.9401 5.98969H15.1139L14.5021 9.24313H21.4208L20.9401 5.98969Z" fill="white"/>
<path d="M16.7291 13.9298V17.0053H17.7224C18.3804 17.0053 18.8813 16.8664 19.2254 16.5886C19.5694 16.3108 19.7414 15.9195 19.7414 15.4148C19.7414 14.4248 19.1093 13.9298 17.845 13.9298H16.7291Z" fill="white"/>
</g>
<defs>
<filter id="filter0_d_1438_3113" x="0" y="0" width="36" height="40" filterUnits="userSpaceOnUse" color-interpolation-filters="sRGB">
<feFlood flood-opacity="0" result="BackgroundImageFix"/>
<feColorMatrix in="SourceAlpha" type="matrix" values="0 0 0 0 0 0 0 0 0 0 0 0 0 0 0 0 0 0 127 0" result="hardAlpha"/>
<feOffset dy="2"/>
<feGaussianBlur stdDeviation="2"/>
<feComposite in2="hardAlpha" operator="out"/>
<feColorMatrix type="matrix" values="0 0 0 0 0 0 0 0 0 0 0 0 0 0 0 0 0 0 0.25 0"/>
<feBlend mode="normal" in2="BackgroundImageFix" result="effect1_dropShadow_1438_3113"/>
<feBlend mode="normal" in="SourceGraphic" in2="effect1_dropShadow_1438_3113" result="shape"/>
</filter>
</defs>
</svg>
