<svg width="36" height="40" viewBox="0 0 36 40" fill="none" xmlns="http://www.w3.org/2000/svg">
<g filter="url(#filter0_d_300_4855)">
<path d="M30.8935 9.98652C30.185 8.42546 29.1635 7.01205 27.8866 5.82605C26.6054 4.62933 25.0952 3.6795 23.4382 3.02843C21.7145 2.34521 19.8855 2 18 2C16.1145 2 14.2855 2.34521 12.5618 3.02483C10.8946 3.68289 9.40054 4.62501 8.11344 5.82245C6.83734 7.00912 5.81592 8.42237 5.10645 9.98292C4.37258 11.6011 4 13.3199 4 15.0891C4 17.6278 4.63602 20.1558 5.88548 22.5938C6.89032 24.5535 8.29409 26.463 10.0629 28.2789C13.0849 31.3786 16.2538 33.2736 17.1532 33.7807C17.4085 33.9247 17.6997 34.0005 17.9962 34C18.2898 34 18.5796 33.9281 18.8392 33.7807C19.7387 33.2736 22.9075 31.3786 25.9296 28.2789C27.6984 26.4666 29.1021 24.5535 30.107 22.5938C31.364 20.1593 32 17.635 32 15.0927C32 13.3235 31.6274 11.6047 30.8935 9.98652Z" fill="#0078D4"/>
<path fill-rule="evenodd" clip-rule="evenodd" d="M28 14C28 19.5228 23.5228 24 18 24C12.4772 24 8 19.5228 8 14C8 8.47715 12.4772 4 18 4C23.5228 4 28 8.47715 28 14ZM15.6182 9.91025C15.621 9.81909 15.6188 9.72685 15.6115 9.63383C15.5029 8.25739 14.2991 7.22959 12.9226 7.33816C11.5462 7.44673 10.5184 8.65057 10.627 10.027C10.7355 11.4034 11.9394 12.4312 13.3158 12.3227C13.868 12.2791 14.364 12.0593 14.7531 11.7228L16.8408 12.4937C16.8419 12.511 16.8431 12.5284 16.8444 12.5458C16.953 13.9223 18.1568 14.9501 19.5333 14.8415C19.577 14.8381 19.6203 14.8335 19.6633 14.8279L20.7603 16.6483C20.433 17.1093 20.2594 17.6834 20.3073 18.2912C20.4159 19.6676 21.6197 20.6954 22.9962 20.5869C24.3726 20.4783 25.4004 19.2744 25.2919 17.898C25.1833 16.5216 23.9794 15.4938 22.603 15.6023C22.5594 15.6058 22.5162 15.6103 22.4733 15.6159L21.3761 13.7953C21.7033 13.3343 21.8769 12.7603 21.8289 12.1526C21.7204 10.7762 20.5165 9.74841 19.1401 9.85698C18.5044 9.90713 17.943 10.1909 17.5336 10.6175L15.6182 9.91025Z" fill="white"/>
</g>
<defs>
<filter id="filter0_d_300_4855" x="0" y="0" width="36" height="40" filterUnits="userSpaceOnUse" color-interpolation-filters="sRGB">
<feFlood flood-opacity="0" result="BackgroundImageFix"/>
<feColorMatrix in="SourceAlpha" type="matrix" values="0 0 0 0 0 0 0 0 0 0 0 0 0 0 0 0 0 0 127 0" result="hardAlpha"/>
<feOffset dy="2"/>
<feGaussianBlur stdDeviation="2"/>
<feComposite in2="hardAlpha" operator="out"/>
<feColorMatrix type="matrix" values="0 0 0 0 0 0 0 0 0 0 0 0 0 0 0 0 0 0 0.25 0"/>
<feBlend mode="normal" in2="BackgroundImageFix" result="effect1_dropShadow_300_4855"/>
<feBlend mode="normal" in="SourceGraphic" in2="effect1_dropShadow_300_4855" result="shape"/>
</filter>
</defs>
</svg>
