<svg width="23" height="25" viewBox="0 0 23 25" fill="none" xmlns="http://www.w3.org/2000/svg">
<path d="M18.0799 9.58397L12.1136 4.10811C12.0282 4.03021 11.9127 3.9865 11.7923 3.9865C11.672 3.9865 11.5565 4.03021 11.4711 4.10811L5.50478 9.58397C5.41728 9.664 5.34812 9.75932 5.3014 9.8643C5.25467 9.96928 5.23132 10.0818 5.23273 10.1952C5.23852 10.6629 5.66251 11.0363 6.17188 11.0363H6.78689V15.3641H16.7978V11.0363H17.4258C17.6733 11.0363 17.9062 10.9473 18.0813 10.7865C18.1675 10.7076 18.2359 10.6138 18.2823 10.5104C18.3288 10.4071 18.3524 10.2963 18.3519 10.1846C18.3519 9.95868 18.255 9.74475 18.0799 9.58397ZM12.6027 14.4074H10.982V11.6967H12.6027V14.4074ZM15.7559 10.0796V14.4074H13.5288V11.3778C13.5288 11.0841 13.2698 10.8463 12.95 10.8463H10.6347C10.3149 10.8463 10.0558 11.0841 10.0558 11.3778V14.4074H7.82879V10.0796H6.43959L11.7938 5.16714L17.1465 10.0796H15.7559Z" fill="#929292"/>
<path d="M21.824 6.2919C21.2727 5.11589 20.4778 4.05111 19.4842 3.15764C18.4873 2.2561 17.3121 1.54055 16.0228 1.05008C14.6816 0.535374 13.2583 0.275314 11.7912 0.275314C10.3241 0.275314 8.90085 0.535374 7.55963 1.04737C6.26234 1.54311 5.09975 2.25285 4.09823 3.15493C3.10527 4.04891 2.31047 5.11356 1.75842 6.2892C1.18737 7.50823 0.897461 8.80311 0.897461 10.1359C0.897461 12.0484 1.39237 13.9528 2.3646 15.7895C3.14649 17.2659 4.23879 18.7043 5.61515 20.0724C7.96668 22.4075 10.4324 23.8351 11.1323 24.2171C11.331 24.3256 11.5576 24.3827 11.7883 24.3823C12.0167 24.3823 12.2422 24.3281 12.4442 24.2171C13.1441 23.8351 15.6099 22.4075 17.9614 20.0724C19.3378 18.707 20.4301 17.2659 21.212 15.7895C22.19 13.9555 22.6849 12.0539 22.6849 10.1386C22.6849 8.80582 22.395 7.51094 21.824 6.2919ZM11.7912 22.3045C9.86137 21.1695 3.00593 16.6753 3.00593 10.1386C3.00593 8.02835 3.91667 6.04539 5.57123 4.55005C7.23165 3.05199 9.43968 2.22576 11.7912 2.22576C14.1427 2.22576 16.3508 3.05199 18.0112 4.55275C19.6657 6.04539 20.5765 8.02835 20.5765 10.1386C20.5765 16.6753 13.721 21.1695 11.7912 22.3045Z" fill="#929292"/>
</svg>
