<svg width="19" height="22" viewBox="0 0 19 22" fill="none" xmlns="http://www.w3.org/2000/svg">
<path d="M18.652 11.8937C18.4828 12.1778 18.2586 12.4215 17.9939 12.609L11.0941 17.4964C10.1302 18.1792 8.86774 18.1792 7.90382 17.4964L1.00407 12.609C0.136186 11.9942 -0.200369 10.8625 0.115493 9.86873L7.91743 15.3257C8.81529 15.9539 9.968 15.9931 10.8977 15.4435L11.0805 15.3257L18.8817 9.86813C19.089 10.5218 19.0271 11.2639 18.652 11.8937ZM18.8817 13.7578C19.089 14.4114 19.0271 15.1535 18.652 15.7833C18.4828 16.0675 18.2586 16.3112 17.9939 16.4986L11.0941 21.3861C10.1302 22.0688 8.86774 22.0688 7.90382 21.3861L1.00407 16.4986C0.136186 15.8839 -0.200369 14.7522 0.115493 13.7584L7.91743 19.2154C8.81529 19.8435 9.968 19.8828 10.8977 19.3331L11.0805 19.2154L18.8817 13.7578ZM11.0805 1.40066L18.3399 6.47929C18.8639 6.84594 19.0056 7.589 18.6562 8.13897C18.5726 8.27045 18.4651 8.38326 18.3399 8.47091L11.0805 13.5495C10.1228 14.2196 8.87514 14.2196 7.91743 13.5495L0.658112 8.47091C0.134031 8.10426 -0.00758575 7.3612 0.341801 6.81123C0.425324 6.67975 0.532828 6.56694 0.658112 6.47929L7.91743 1.40066C8.87514 0.730643 10.1228 0.730643 11.0805 1.40066ZM8.99804 2.81497L8.86636 2.89438L2.3197 7.4751L8.86636 12.0558C9.20688 12.2941 9.63905 12.3205 9.99993 12.1352L10.1316 12.0558L16.6771 7.4751L10.1316 2.89438C9.79109 2.65615 9.35892 2.62968 8.99804 2.81497Z" fill="#929292"/>
</svg>
