<svg width="346" height="137" viewBox="0 0 346 137" fill="none" xmlns="http://www.w3.org/2000/svg">
<path d="M342.826 104.315H333.585C332.743 104.315 331.935 104.628 331.339 105.186C330.743 105.743 330.408 106.499 330.408 107.288V115.946C330.409 116.734 330.744 117.49 331.34 118.047C331.935 118.604 332.743 118.918 333.585 118.919H342.826C343.668 118.918 344.475 118.604 345.07 118.047C345.666 117.489 346 116.734 346 115.946V107.288C346 106.897 345.919 106.511 345.759 106.15C345.6 105.79 345.366 105.462 345.071 105.186C344.777 104.91 344.427 104.691 344.041 104.541C343.656 104.392 343.243 104.315 342.826 104.315ZM343.581 114.87C343.581 116.001 342.895 116.644 341.682 116.644H334.726C333.516 116.644 332.827 116.001 332.827 114.87V108.358C332.827 107.226 333.516 106.581 334.726 106.581H341.682C342.895 106.581 343.581 107.226 343.581 108.358V114.87ZM305.629 104.315H296.385C295.543 104.316 294.736 104.629 294.141 105.187C293.545 105.744 293.211 106.5 293.211 107.288V115.946C293.211 116.734 293.545 117.489 294.141 118.047C294.736 118.604 295.543 118.918 296.385 118.919H305.629C306.471 118.918 307.279 118.604 307.875 118.047C308.47 117.49 308.805 116.734 308.806 115.946V107.288C308.806 106.499 308.471 105.743 307.876 105.186C307.28 104.628 306.471 104.315 305.629 104.315ZM306.384 114.87C306.384 116.001 305.698 116.644 304.485 116.644H297.529C296.319 116.644 295.633 116.001 295.633 114.87V108.358C295.633 107.226 296.319 106.581 297.529 106.581H304.485C305.698 106.581 306.384 107.226 306.384 108.358V114.87ZM327.356 104.315H325.551C325.468 104.315 325.388 104.346 325.33 104.401C325.271 104.456 325.238 104.53 325.238 104.608V114.87C325.238 116.001 324.552 116.644 323.358 116.644H316.389C315.176 116.644 314.49 116.001 314.49 114.87V111.387C314.49 111.309 314.457 111.234 314.398 111.179C314.34 111.124 314.26 111.093 314.177 111.093H312.369C312.286 111.093 312.206 111.124 312.147 111.179C312.089 111.234 312.056 111.309 312.056 111.387V115.946C312.056 116.734 312.39 117.489 312.985 118.047C313.58 118.604 314.388 118.918 315.23 118.919H324.47C324.889 118.92 325.303 118.845 325.69 118.696C326.078 118.547 326.429 118.329 326.726 118.052C327.023 117.776 327.258 117.448 327.419 117.086C327.58 116.725 327.663 116.337 327.663 115.946V104.605C327.662 104.529 327.63 104.456 327.573 104.402C327.515 104.347 327.438 104.316 327.356 104.315ZM266.43 104.315H264.625C264.542 104.315 264.462 104.346 264.403 104.401C264.344 104.456 264.311 104.53 264.311 104.608V114.87C264.311 116.001 263.622 116.644 262.413 116.644H255.459C254.253 116.644 253.564 116.001 253.564 114.87V104.608C253.564 104.53 253.531 104.456 253.472 104.401C253.413 104.346 253.333 104.315 253.25 104.315H251.442C251.359 104.315 251.28 104.346 251.221 104.401C251.162 104.456 251.129 104.53 251.129 104.608V115.946C251.129 116.734 251.463 117.489 252.059 118.047C252.654 118.604 253.461 118.918 254.303 118.919H263.544C263.962 118.921 264.377 118.845 264.765 118.697C265.152 118.548 265.505 118.33 265.802 118.053C266.099 117.777 266.334 117.449 266.495 117.087C266.656 116.725 266.739 116.338 266.74 115.946V104.605C266.739 104.528 266.706 104.455 266.648 104.401C266.59 104.346 266.512 104.315 266.43 104.315ZM269.861 118.91H271.669C271.752 118.91 271.831 118.879 271.89 118.824C271.949 118.769 271.982 118.695 271.982 118.617V108.355C271.982 107.223 272.671 106.578 273.881 106.578H286.101C287.314 106.578 287.981 107.223 287.981 108.355V118.617C287.981 118.695 288.014 118.769 288.073 118.824C288.132 118.879 288.212 118.91 288.295 118.91H290.103C290.186 118.91 290.265 118.879 290.324 118.824C290.383 118.769 290.416 118.695 290.416 118.617V107.288C290.416 106.5 290.082 105.744 289.487 105.187C288.891 104.629 288.084 104.316 287.242 104.315H272.731C272.314 104.314 271.9 104.391 271.515 104.54C271.129 104.69 270.778 104.909 270.483 105.185C270.188 105.461 269.954 105.789 269.795 106.15C269.635 106.51 269.553 106.897 269.554 107.288V118.623C269.555 118.698 269.588 118.771 269.645 118.824C269.703 118.878 269.78 118.908 269.861 118.91Z" fill="white"/>
<path d="M281.074 111.232H279.252C279.168 111.232 279.088 111.263 279.029 111.317C278.969 111.372 278.936 111.445 278.936 111.522V118.629C278.936 118.706 278.969 118.779 279.029 118.834C279.088 118.888 279.168 118.919 279.252 118.919H281.074C281.158 118.919 281.238 118.888 281.297 118.834C281.356 118.779 281.39 118.706 281.39 118.629V111.517C281.388 111.441 281.354 111.368 281.295 111.315C281.236 111.262 281.156 111.232 281.074 111.232Z" fill="white"/>
<path d="M233.609 115.442V108.361H235.087V111.023H235.132C235.196 110.88 235.29 110.735 235.413 110.587C235.538 110.438 235.699 110.313 235.898 110.214C236.099 110.113 236.349 110.062 236.647 110.062C237.036 110.062 237.394 110.163 237.722 110.366C238.051 110.567 238.313 110.87 238.51 111.275C238.706 111.679 238.804 112.185 238.804 112.793C238.804 113.386 238.708 113.886 238.517 114.294C238.327 114.699 238.068 115.007 237.74 115.217C237.414 115.424 237.048 115.528 236.644 115.528C236.357 115.528 236.113 115.481 235.912 115.386C235.713 115.292 235.55 115.173 235.423 115.03C235.296 114.885 235.199 114.739 235.132 114.591H235.066V115.442H233.609ZM235.055 112.786C235.055 113.102 235.099 113.378 235.187 113.613C235.275 113.848 235.402 114.031 235.569 114.162C235.735 114.291 235.938 114.356 236.176 114.356C236.416 114.356 236.62 114.29 236.786 114.159C236.952 114.025 237.079 113.841 237.164 113.606C237.252 113.368 237.296 113.095 237.296 112.786C237.296 112.48 237.253 112.21 237.168 111.977C237.082 111.745 236.956 111.562 236.79 111.431C236.623 111.3 236.418 111.234 236.176 111.234C235.935 111.234 235.732 111.297 235.565 111.424C235.401 111.551 235.275 111.731 235.187 111.963C235.099 112.196 235.055 112.471 235.055 112.786Z" fill="white"/>
<path d="M240.531 117.433C240.343 117.433 240.168 117.418 240.004 117.388C239.842 117.36 239.708 117.325 239.601 117.281L239.934 116.182C240.108 116.235 240.264 116.263 240.402 116.268C240.543 116.273 240.665 116.24 240.767 116.171C240.871 116.102 240.955 115.984 241.02 115.818L241.106 115.594L239.195 110.131H240.749L241.852 114.031H241.908L243.021 110.131H244.585L242.514 116.016C242.415 116.301 242.28 116.55 242.109 116.762C241.94 116.977 241.726 117.142 241.467 117.257C241.208 117.374 240.896 117.433 240.531 117.433Z" fill="white"/>
<path d="M62.4597 18.3537C62.658 18.6655 62.7909 19.0141 62.8506 19.3784C62.9102 19.7428 62.8954 20.1154 62.8069 20.4739C62.7185 20.8323 62.5582 21.1693 62.3358 21.4645C62.1134 21.7598 61.8334 22.0072 61.5126 22.1919C61.1918 22.3766 60.8368 22.4949 60.4691 22.5395C60.1013 22.5842 59.7282 22.5543 59.3723 22.4518C59.0164 22.3492 58.6849 22.176 58.3979 21.9426C58.1108 21.7092 57.874 21.4205 57.7017 21.0937C57.5035 20.7818 57.3706 20.4332 57.3109 20.0689C57.2512 19.7045 57.2661 19.3319 57.3545 18.9735C57.443 18.615 57.6033 18.278 57.8257 17.9828C58.0481 17.6875 58.3281 17.4401 58.6489 17.2554C58.9697 17.0707 59.3246 16.9524 59.6924 16.9078C60.0602 16.8631 60.4333 16.893 60.7892 16.9955C61.1451 17.0981 61.4765 17.2713 61.7636 17.5047C62.0507 17.7381 62.2875 18.0268 62.4597 18.3537ZM48.3604 26.4577C48.0881 25.9896 47.6828 25.6122 47.1957 25.3732C46.7085 25.1343 46.1612 25.0444 45.6228 25.1148C45.0844 25.1853 44.579 25.413 44.1703 25.7692C43.7616 26.1255 43.4679 26.5943 43.3262 27.1166C43.1845 27.6389 43.2012 28.1913 43.3742 28.7042C43.5471 29.217 43.8686 29.6674 44.298 29.9985C44.7275 30.3296 45.2458 30.5266 45.7874 30.5647C46.3291 30.6028 46.87 30.4802 47.3418 30.2125C47.6572 30.0336 47.9339 29.7942 48.1559 29.5083C48.378 29.2223 48.5411 28.8954 48.6358 28.5464C48.7304 28.1973 48.7549 27.8331 48.7076 27.4746C48.6603 27.1161 48.5423 26.7705 48.3604 26.4577ZM89.7563 33.7063C89.2855 33.4347 88.7443 33.3083 88.2014 33.3432C87.6584 33.378 87.138 33.5726 86.706 33.9022C86.2741 34.2319 85.95 34.6818 85.7747 35.195C85.5995 35.7082 85.581 36.2617 85.7216 36.7854C85.8621 37.3091 86.1555 37.7795 86.5645 38.137C86.9734 38.4946 87.4797 38.7232 88.0191 38.794C88.5585 38.8648 89.1069 38.7746 89.5949 38.5347C90.0828 38.2949 90.4884 37.9162 90.7603 37.4467C90.9432 37.1336 91.0623 36.7877 91.1108 36.4286C91.1593 36.0696 91.1363 35.7046 91.0431 35.3545C90.9498 35.0044 90.7881 34.676 90.5674 34.3882C90.3466 34.1005 90.071 33.8589 89.7563 33.6774V33.7063ZM102.415 95.6825C102.963 95.6854 103.499 95.5263 103.955 95.2254C104.412 94.9245 104.768 94.4953 104.98 93.9922C105.191 93.4892 105.248 92.9349 105.143 92.3996C105.038 91.8643 104.776 91.3722 104.39 90.9855C104.004 90.5988 103.511 90.335 102.974 90.2276C102.438 90.1201 101.881 90.1738 101.375 90.3819C100.869 90.5899 100.437 90.9429 100.132 91.3962C99.8277 91.8495 99.6652 92.3826 99.6652 92.928C99.6652 93.6561 99.9544 94.3545 100.47 94.8707C100.985 95.3868 101.685 95.6787 102.415 95.6825ZM102.415 79.46C102.963 79.4629 103.499 79.3038 103.955 79.0028C104.412 78.7019 104.768 78.2728 104.98 77.7697C105.191 77.2666 105.248 76.7123 105.143 76.1771C105.038 75.6418 104.776 75.1496 104.39 74.763C104.004 74.3763 103.511 74.1125 102.974 74.005C102.438 73.8976 101.881 73.9513 101.375 74.1593C100.869 74.3674 100.437 74.7204 100.132 75.1737C99.8277 75.627 99.6652 76.1601 99.6652 76.7055C99.6594 77.0709 99.7266 77.4337 99.8629 77.773C99.9993 78.1122 100.202 78.421 100.459 78.6814C100.717 78.9418 101.023 79.1486 101.362 79.2897C101.7 79.4309 102.063 79.5035 102.43 79.5035L102.415 79.46ZM102.415 63.223C102.959 63.223 103.491 63.0623 103.943 62.7612C104.395 62.4601 104.748 62.0322 104.956 61.5315C105.164 61.0308 105.218 60.4799 105.112 59.9484C105.006 59.4169 104.744 58.9287 104.36 58.5455C103.975 58.1623 103.485 57.9013 102.952 57.7956C102.418 57.6899 101.865 57.7442 101.363 57.9515C100.86 58.1589 100.431 58.5101 100.129 58.9607C99.8265 59.4113 99.6652 59.941 99.6652 60.483C99.6573 60.8482 99.7233 61.2113 99.8591 61.5506C99.9949 61.8899 100.198 62.1986 100.456 62.4582C100.714 62.7179 101.021 62.9232 101.36 63.0621C101.699 63.2009 102.063 63.2704 102.43 63.2665L102.415 63.223ZM86.9335 114.877C86.4622 115.148 86.0822 115.552 85.8415 116.038C85.6008 116.524 85.5102 117.071 85.5813 117.608C85.6523 118.146 85.8818 118.65 86.2406 119.058C86.5995 119.465 87.0716 119.757 87.5972 119.897C88.1229 120.037 88.6784 120.019 89.1935 119.844C89.7086 119.67 90.1601 119.347 90.491 118.917C90.8218 118.486 91.0171 117.968 91.0521 117.427C91.0871 116.886 90.9602 116.346 90.6875 115.877C90.3224 115.249 89.7221 114.791 89.0182 114.603C88.3144 114.416 87.5646 114.514 86.9335 114.877ZM101.106 106.715C100.636 106.986 100.257 107.39 100.017 107.875C99.7774 108.361 99.6872 108.906 99.7579 109.443C99.8286 109.979 100.057 110.483 100.415 110.89C100.772 111.297 101.243 111.59 101.767 111.731C102.291 111.872 102.846 111.855 103.36 111.683C103.875 111.511 104.327 111.19 104.659 110.763C104.992 110.335 105.189 109.818 105.228 109.279C105.266 108.739 105.143 108.2 104.874 107.73C104.509 107.098 103.907 106.637 103.2 106.446C102.494 106.256 101.741 106.353 101.106 106.715ZM15.2582 91.4928C14.9712 91.964 14.8327 92.5102 14.8606 93.0607C14.8885 93.6112 15.0815 94.1406 15.4147 94.5807C15.7478 95.0207 16.2058 95.351 16.7295 95.5289C17.2531 95.7067 17.8182 95.724 18.3517 95.5785C18.8853 95.4329 19.3628 95.1312 19.7224 94.7123C20.082 94.2935 20.3072 93.7768 20.369 93.2291C20.4307 92.6813 20.3261 92.1277 20.0686 91.6399C19.8112 91.152 19.4127 90.7523 18.9249 90.4925C18.2942 90.1382 17.5493 90.0444 16.85 90.2315C16.1508 90.4185 15.5531 90.8714 15.1854 91.4928H15.2582ZM30.3033 103.366C30.7741 103.636 31.3147 103.761 31.8567 103.725C32.3988 103.69 32.9181 103.495 33.3491 103.165C33.7801 102.836 34.1035 102.386 34.2785 101.874C34.4535 101.362 34.4723 100.809 34.3324 100.286C34.1926 99.763 33.9004 99.2929 33.4927 98.9352C33.085 98.5774 32.5801 98.348 32.0417 98.2758C31.5033 98.2037 30.9556 98.292 30.4675 98.5297C29.9794 98.7673 29.5729 99.1437 29.2993 99.6113C29.1168 99.9233 28.9979 100.268 28.9496 100.626C28.9013 100.984 28.9244 101.348 29.0177 101.697C29.111 102.046 29.2726 102.373 29.4933 102.659C29.7139 102.946 29.9892 103.186 30.3033 103.366ZM44.4027 111.485C45.0355 111.848 45.7874 111.946 46.4927 111.757C46.842 111.663 47.1694 111.502 47.4561 111.283C47.7428 111.063 47.9834 110.789 48.1639 110.477C48.3445 110.165 48.4616 109.82 48.5085 109.463C48.5554 109.106 48.5312 108.743 48.4373 108.395C48.3434 108.047 48.1816 107.72 47.9612 107.435C47.7408 107.149 47.4661 106.909 47.1527 106.73C46.5198 106.366 45.768 106.268 45.0626 106.457C44.3572 106.646 43.7561 107.107 43.3914 107.737C43.0267 108.368 42.9284 109.117 43.118 109.82C43.3077 110.522 43.7698 111.121 44.4027 111.485ZM71.4519 60.309C71.449 60.8544 71.6087 61.3884 71.9107 61.8432C72.2127 62.2981 72.6435 62.6534 73.1484 62.8641C73.6533 63.0748 74.2096 63.1315 74.7468 63.0268C75.2841 62.9222 75.778 62.661 76.1661 62.2764C76.5542 61.8917 76.819 61.4009 76.9268 60.8662C77.0347 60.3315 76.9808 59.7769 76.772 59.2728C76.5632 58.7686 76.2088 58.3376 75.7539 58.0342C75.2989 57.7309 74.7639 57.569 74.2165 57.569C73.8541 57.5671 73.4949 57.6366 73.1596 57.7734C72.8243 57.9102 72.5194 58.1118 72.2625 58.3664C72.0056 58.621 71.8017 58.9237 71.6626 59.2571C71.5235 59.5905 71.4519 59.948 71.4519 60.309ZM45.8577 41.071C45.3097 41.0681 44.7732 41.2276 44.3163 41.5292C43.8595 41.8307 43.5029 42.2608 43.2918 42.7647C43.0808 43.2686 43.0248 43.8236 43.131 44.3593C43.2372 44.895 43.5008 45.3871 43.8883 45.7732C44.2758 46.1593 44.7698 46.4219 45.3074 46.5277C45.845 46.6336 46.4021 46.5778 46.9078 46.3675C47.4136 46.1572 47.8452 45.8019 48.1479 45.3468C48.4505 44.8916 48.6106 44.357 48.6077 43.811C48.6039 43.0855 48.3129 42.3908 47.798 41.8777C47.2831 41.3647 46.5859 41.0748 45.8577 41.071ZM45.8577 95.6536C46.401 95.6507 46.9312 95.4876 47.3815 95.1848C47.8319 94.8819 48.1821 94.453 48.388 93.9521C48.5939 93.4512 48.6463 92.9007 48.5385 92.3702C48.4308 91.8396 48.1677 91.3528 47.7826 90.971C47.3974 90.5893 46.9074 90.3297 46.3743 90.2252C45.8413 90.1206 45.2891 90.1757 44.7874 90.3835C44.2858 90.5913 43.8571 90.9425 43.5556 91.3928C43.254 91.8431 43.0931 92.3722 43.0931 92.9135C43.0873 93.2776 43.1547 93.6391 43.2913 93.9767C43.428 94.3143 43.6312 94.6212 43.8889 94.8794C44.1466 95.1375 44.4536 95.3415 44.7917 95.4795C45.1299 95.6174 45.4923 95.6865 45.8577 95.6825V95.6536ZM31.7438 23.1958C32.2291 23.1966 32.7091 23.0955 33.1525 22.8988C33.5958 22.7022 33.9925 22.4145 34.3167 22.0546C34.6408 21.6947 34.885 21.2707 35.0334 20.8104C35.1818 20.35 35.2309 19.8636 35.1777 19.383L43.8352 14.3379C44.4387 14.7915 45.1745 15.0359 45.9304 15.0338C46.5316 15.0306 47.1223 14.876 47.6474 14.5843C48.0438 14.3591 48.3909 14.057 48.6683 13.696C48.9456 13.335 49.1477 12.9223 49.2625 12.4822C49.3783 12.0426 49.4079 11.5848 49.3498 11.134L57.8763 6.19037L58.1674 6.37884C58.7418 6.71472 59.4027 6.87459 60.0678 6.83849C60.7328 6.8024 61.3724 6.57194 61.9068 6.17587L70.6371 11.221C70.5986 11.6297 70.6331 12.042 70.7389 12.4387C70.9389 13.168 71.3728 13.812 71.9744 14.2727C72.576 14.7334 73.3122 14.9854 74.071 14.9903C74.6029 14.9908 75.1278 14.8691 75.605 14.6348C76.0822 14.4005 76.4987 14.0598 76.8224 13.6392C77.1461 13.2186 77.3681 12.7293 77.4713 12.2094C77.5745 11.6894 77.5561 11.1528 77.4176 10.6411C77.2037 9.92293 76.7619 9.29322 76.1586 8.84628C75.5553 8.39935 74.8228 8.15926 74.071 8.16201C73.3265 8.16096 72.6016 8.4 72.0048 8.84339L63.2746 3.8128C63.3326 3.39087 63.3029 2.96153 63.1872 2.55153C62.9893 1.82937 62.562 1.1905 61.9692 0.730539C61.3764 0.270581 60.6501 0.01428 59.8989 0C59.2915 0.00174989 58.6953 0.161932 58.1694 0.464605C57.6435 0.767278 57.2064 1.20189 56.9015 1.72519C56.5264 2.35865 56.3681 3.0964 56.4504 3.8273L47.8657 8.81439C47.2936 8.41733 46.6131 8.20479 45.9159 8.2055C45.3055 8.21683 44.7087 8.38674 44.1844 8.69841C43.6197 9.02932 43.1603 9.51242 42.8591 10.0921C42.5579 10.6717 42.4272 11.3244 42.482 11.9748L33.7517 17.0344C33.1599 16.617 32.4543 16.3895 31.7292 16.382C31.121 16.3811 30.5235 16.5412 29.9977 16.8459C29.3777 17.2433 28.9012 17.8274 28.6375 18.5133C28.3737 19.1992 28.3365 19.9511 28.5313 20.6594C28.7261 21.3678 29.1427 21.9958 29.7205 22.452C30.2983 22.9082 31.0071 23.1687 31.7438 23.1958ZM117.868 87.941V97.9586C118.593 98.2839 119.183 98.8477 119.54 99.5554C119.897 100.263 119.999 101.072 119.828 101.845C119.657 102.619 119.225 103.311 118.603 103.804C117.981 104.297 117.208 104.562 116.413 104.555C115.618 104.562 114.844 104.297 114.222 103.804C113.601 103.311 113.168 102.619 112.997 101.845C112.827 101.072 112.928 100.263 113.285 99.5554C113.642 98.8477 114.233 98.2839 114.958 97.9586V87.941C114.574 87.7672 114.224 87.5266 113.925 87.2306C113.521 86.8296 113.223 86.3355 113.056 85.7922C112.89 85.2488 112.861 84.673 112.972 84.1158C113.083 83.5586 113.33 83.0373 113.692 82.5981C114.053 82.159 114.518 81.8156 115.045 81.5984C115.572 81.3812 116.144 81.297 116.712 81.3531C117.279 81.4093 117.823 81.6042 118.297 81.9204C118.771 82.2366 119.159 82.6645 119.426 83.166C119.694 83.6674 119.833 84.227 119.832 84.795C119.835 85.4505 119.653 86.0936 119.305 86.6502C118.958 87.2067 118.459 87.6542 117.868 87.941ZM117.868 55.3654V65.3831C118.593 65.7083 119.183 66.2721 119.54 66.9799C119.897 67.6876 119.999 68.4962 119.828 69.2698C119.657 70.0434 119.225 70.735 118.603 71.2284C117.981 71.7218 117.208 71.9869 116.413 71.9794C115.958 71.979 115.508 71.8892 115.089 71.7151C114.669 71.5409 114.288 71.2859 113.968 70.9646C113.326 70.3151 112.966 69.4405 112.964 68.529C112.965 67.8613 113.16 67.2082 113.527 66.6495C113.894 66.0908 114.416 65.6507 115.03 65.3831V55.3219C114.637 55.1574 114.281 54.9158 113.983 54.6115C113.585 54.2167 113.289 53.7309 113.123 53.1965C112.956 52.662 112.923 52.0951 113.026 51.5449C113.129 50.9948 113.366 50.4781 113.715 50.0398C114.064 49.6015 114.516 49.2549 115.03 49.0301V39.0124C114.808 38.918 114.597 38.7962 114.405 38.6499L105.791 43.5935C105.871 44.0876 105.842 44.5931 105.707 45.0751C105.572 45.5572 105.334 46.0044 105.009 46.386C104.684 46.7676 104.28 47.0746 103.825 47.2857C103.37 47.4969 102.874 47.6073 102.372 47.6093C101.764 47.6068 101.167 47.4469 100.64 47.1454C100.476 47.0525 100.32 46.9458 100.174 46.8265L91.6624 51.7121V52.1615C91.6597 52.8551 91.4473 53.5319 91.0527 54.1034C90.6582 54.675 90.0999 55.1147 89.4508 55.3654V65.3251C90.1862 65.612 90.8004 66.1418 91.1909 66.8258C91.5813 67.5098 91.7243 68.3066 91.5959 69.0831C91.4675 69.8595 91.0755 70.5685 90.4854 71.0915C89.8953 71.6145 89.1429 71.9199 88.354 71.9565C87.565 71.9932 86.7874 71.7589 86.151 71.2929C85.5146 70.8268 85.0581 70.1573 84.8577 69.3961C84.6573 68.635 84.7253 67.8283 85.0501 67.1111C85.375 66.3938 85.9371 65.8094 86.6425 65.4556V55.2204C86.1034 54.919 85.6556 54.4787 85.3458 53.9456C85.0361 53.4126 84.8759 52.8064 84.8819 52.1905C84.8747 52.094 84.8747 51.997 84.8819 51.9005L75.9916 46.783C75.4711 47.1014 74.875 47.2764 74.2644 47.29C73.6537 47.3036 73.0504 47.1554 72.5161 46.8604C71.9818 46.5655 71.5357 46.1345 71.2235 45.6114C70.9112 45.0884 70.744 44.4921 70.7389 43.8835V43.782L62.0087 38.7659C61.819 38.9088 61.614 39.0303 61.3975 39.1284V49.088C62.0065 49.3583 62.5238 49.7985 62.8868 50.3556C63.2498 50.9126 63.4431 51.5626 63.4431 52.2267C63.4431 52.8909 63.2498 53.5408 62.8868 54.0979C62.5238 54.6549 62.0065 55.0952 61.3975 55.3654V65.5135C62.0088 65.7834 62.5281 66.2243 62.8923 66.7829C63.2566 67.3414 63.45 67.9934 63.4492 68.6595V68.9639L72.2958 73.893C72.6797 73.5592 73.1331 73.3144 73.6234 73.1761C74.1137 73.0377 74.6286 73.0094 75.1311 73.093C75.6337 73.1767 76.1115 73.3702 76.53 73.6598C76.9485 73.9494 77.2974 74.3277 77.5516 74.7677C77.8058 75.2077 77.959 75.6983 78.0002 76.2044C78.0414 76.7104 77.9695 77.2192 77.7897 77.6942C77.6099 78.1692 77.3267 78.5987 76.9605 78.9516C76.5942 79.3046 76.154 79.5723 75.6715 79.7355V89.7096C76.2847 89.9779 76.8062 90.4182 77.1723 90.9769C77.5385 91.5355 77.7335 92.1883 77.7335 92.8556C77.7335 93.5228 77.5385 94.1756 77.1723 94.7342C76.8062 95.2929 76.2847 95.7332 75.6715 96.0015V106.15C75.9291 106.271 76.1689 106.428 76.3845 106.614L84.751 101.481C84.693 101.04 84.7226 100.592 84.8383 100.162C84.9563 99.7254 85.1598 99.3162 85.4369 98.958C85.7141 98.5997 86.0595 98.2995 86.4534 98.0746C86.5539 98.01 86.6613 97.9565 86.7735 97.9151V87.767C86.07 87.4094 85.511 86.8221 85.1899 86.1032C84.8689 85.3843 84.8052 84.5773 85.0095 83.8173C85.2139 83.0572 85.6739 82.3901 86.3127 81.9273C86.9515 81.4646 87.7303 81.2344 88.519 81.2751C89.3077 81.3158 90.0584 81.625 90.6458 82.151C91.2331 82.677 91.6215 83.388 91.7459 84.165C91.8703 84.9421 91.7233 85.7381 91.3294 86.4201C90.9355 87.1021 90.3185 87.6287 89.5817 87.912V97.8861C90.3375 98.2129 90.9494 98.8006 91.305 99.5411C91.6605 100.282 91.7358 101.125 91.5169 101.916C91.4044 102.354 91.2046 102.764 90.9297 103.122C90.6547 103.481 90.3101 103.781 89.9164 104.004C89.3471 104.333 88.6953 104.493 88.0378 104.464C87.3804 104.436 86.7448 104.221 86.206 103.845L77.4758 109.078C77.4811 109.396 77.4419 109.713 77.3594 110.02C77.2459 110.459 77.0442 110.87 76.7666 111.229C76.489 111.588 76.1412 111.887 75.7443 112.108C75.2242 112.415 74.6319 112.58 74.0273 112.586C73.4181 112.584 72.82 112.424 72.2918 112.122C71.7637 111.819 71.3238 111.385 71.0154 110.861C70.7888 110.468 70.6422 110.034 70.5839 109.585C70.5256 109.135 70.5568 108.679 70.6757 108.241C70.7946 107.804 70.9989 107.394 71.2769 107.035C71.5549 106.676 71.9011 106.375 72.2958 106.15C72.4387 106.063 72.5898 105.99 72.7469 105.932V96.0595C72.1337 95.7912 71.6122 95.3509 71.2461 94.7922C70.8799 94.2336 70.6849 93.5808 70.6849 92.9135C70.6849 92.2463 70.8799 91.5935 71.2461 91.0349C71.6122 90.4762 72.1337 90.0359 72.7469 89.7676V79.7355C72.5213 79.6464 72.3104 79.5243 72.1212 79.373L63.391 84.4471V84.7225C63.3914 85.415 63.1819 86.0914 62.7898 86.6631C62.3977 87.2348 61.8414 87.6752 61.1938 87.9265V97.7847C61.7767 98.0138 62.2859 98.3969 62.6666 98.8927C63.0474 99.3885 63.2854 99.9784 63.355 100.599C63.4247 101.219 63.3233 101.847 63.0619 102.414C62.8004 102.982 62.3888 103.467 61.8711 103.819C61.3535 104.171 60.7494 104.376 60.1238 104.411C59.4982 104.446 58.8748 104.311 58.3204 104.02C57.7661 103.729 57.3018 103.293 56.9774 102.759C56.6531 102.225 56.4809 101.613 56.4795 100.989C56.4778 100.35 56.6553 99.7239 56.9922 99.1807C57.329 98.6376 57.8117 98.1992 58.3856 97.9151V87.767C57.8117 87.4829 57.329 87.0445 56.9922 86.5014C56.6553 85.9582 56.4778 85.332 56.4795 84.6935V84.4036L47.7493 79.373C47.1699 79.7917 46.4715 80.0152 45.7558 80.0109C45.3011 80.0109 44.8508 79.9217 44.4306 79.7483C44.0105 79.5749 43.6287 79.3207 43.3071 79.0003C42.9856 78.6799 42.7305 78.2996 42.5564 77.8809C42.3824 77.4623 42.2928 77.0136 42.2928 76.5605C42.2785 76.4547 42.2785 76.3474 42.2928 76.2416L33.5626 71.2255C33.37 71.3718 33.1598 71.4935 32.9369 71.5879V81.5621C33.503 81.8151 33.99 82.2155 34.3468 82.7212C34.7035 83.2269 34.9167 83.8192 34.964 84.4355C35.0112 85.0518 34.8907 85.6694 34.6151 86.2232C34.3395 86.777 33.9191 87.2465 33.3982 87.5822C32.8772 87.9178 32.2751 88.1073 31.6551 88.1305C31.0352 88.1537 30.4204 88.0099 29.8757 87.7141C29.3309 87.4184 28.8763 86.9817 28.5597 86.4501C28.2432 85.9185 28.0764 85.3117 28.0771 84.6935C28.0698 84.5777 28.0698 84.4615 28.0771 84.3456L19.3468 79.344C18.7925 79.7032 18.1456 79.8946 17.4844 79.8949C16.6894 79.9025 15.9161 79.6373 15.2942 79.1439C14.6722 78.6505 14.2396 77.959 14.069 77.1854C13.8984 76.4117 14 75.6032 14.357 74.8954C14.714 74.1877 15.3045 73.6239 16.0293 73.2986V63.4549C15.4162 63.1867 14.8947 62.7463 14.5285 62.1877C14.1624 61.629 13.9674 60.9762 13.9674 60.309C13.9674 59.6418 14.1624 58.989 14.5285 58.4303C14.8947 57.8717 15.4162 57.4313 16.0293 57.1631V47.2324C15.4165 46.9632 14.8951 46.5228 14.5284 45.9644C14.1617 45.4061 13.9654 44.7537 13.9632 44.0865C13.956 43.9706 13.956 43.8544 13.9632 43.7385L5.23291 38.7949C5.14715 38.9158 5.05486 39.032 4.95645 39.1429V49.1605C5.56368 49.4361 6.07851 49.8799 6.43952 50.439C6.80054 50.9981 6.9925 51.6489 6.9925 52.3137C6.9925 52.9785 6.80054 53.6293 6.43952 54.1884C6.07851 54.7475 5.56368 55.1913 4.95645 55.4669V65.4701C5.56452 65.743 6.08056 66.185 6.44257 66.7431C6.80458 67.3011 6.99715 67.9515 6.99715 68.616C6.99715 69.2805 6.80458 69.9308 6.44257 70.4889C6.08056 71.047 5.56452 71.489 4.95645 71.7619V81.7796C5.56452 82.0525 6.08056 82.4945 6.44257 83.0526C6.80458 83.6107 6.99715 84.261 6.99715 84.9255C6.99715 85.59 6.80458 86.2403 6.44257 86.7984C6.08056 87.3565 5.56452 87.7985 4.95645 88.0714V97.8571L5.20381 97.9731C5.78292 98.3104 6.25176 98.8074 6.55382 99.4042C6.85588 100.001 6.97826 100.672 6.90621 101.337L16.2912 106.73C16.8237 106.444 17.4354 106.341 18.0326 106.435C18.6297 106.529 19.1795 106.815 19.5976 107.25C20.0157 107.686 20.2792 108.245 20.3476 108.844C20.416 109.442 20.2856 110.047 19.9763 110.564C19.6671 111.082 19.1961 111.484 18.6354 111.71C18.0748 111.935 17.4554 111.971 16.8722 111.813C16.2889 111.654 15.774 111.309 15.4063 110.831C15.0386 110.353 14.8383 109.767 14.8362 109.165L5.48027 103.758C4.88583 104.166 4.18001 104.384 3.45776 104.381C2.85439 104.38 2.26202 104.22 1.74081 103.917C1.17982 103.598 0.719883 103.129 0.413348 102.563C0.106813 101.997 -0.0340001 101.356 0.00693918 100.714C0.0478785 100.072 0.268925 99.4544 0.644915 98.9314C1.0209 98.4083 1.53673 98.001 2.13367 97.7557V88.0279C1.52052 87.7597 0.999021 87.3193 0.632861 86.7607C0.2667 86.202 0.0717163 85.5492 0.0717163 84.882C0.0717163 84.2148 0.2667 83.562 0.632861 83.0033C0.999021 82.4447 1.52052 82.0044 2.13367 81.7361V71.7184C1.52052 71.4501 0.999021 71.0098 0.632861 70.4512C0.2667 69.8925 0.0717163 69.2397 0.0717163 68.5725C0.0717163 67.9053 0.2667 67.2525 0.632861 66.6938C0.999021 66.1352 1.52052 65.6948 2.13367 65.4266V55.4089C1.52052 55.1406 0.999021 54.7003 0.632861 54.1416C0.2667 53.583 0.0717163 52.9302 0.0717163 52.263C0.0717163 51.5957 0.2667 50.943 0.632861 50.3843C0.999021 49.8256 1.52052 49.3853 2.13367 49.117V39.1429C1.40307 38.8237 0.806145 38.2619 0.444588 37.5534C0.0830321 36.8449 -0.0207876 36.0334 0.150816 35.2571C0.32242 34.4809 0.758832 33.7879 1.3857 33.2963C2.01257 32.8047 2.79112 32.5449 3.58871 32.5611C4.32193 32.56 5.03608 32.7938 5.62577 33.2279L14.1814 28.3858C14.1447 27.9177 14.2046 27.4471 14.3575 27.003C14.5104 26.5589 14.753 26.1508 15.0704 25.8037C15.3878 25.4567 15.7732 25.1781 16.2028 24.9853C16.6324 24.7924 17.0972 24.6893 17.5683 24.6824C18.0395 24.6754 18.5071 24.7648 18.9423 24.9449C19.3774 25.125 19.7709 25.3921 20.0985 25.7296C20.426 26.0671 20.6807 26.468 20.8467 26.9074C21.0127 27.3468 21.0866 27.8154 21.0638 28.2843L29.794 33.2279C29.8987 33.1454 30.0107 33.0726 30.1287 33.0105C30.6544 32.7058 31.252 32.5457 31.8602 32.5466C32.4755 32.5311 33.084 32.6786 33.6233 32.9741C34.1627 33.2695 34.6137 33.7023 34.9303 34.2283C35.16 34.6182 35.3081 35.0504 35.3656 35.4989C35.4231 35.9474 35.3889 36.4028 35.265 36.8378C35.1509 37.2743 34.9506 37.6838 34.6758 38.0422C34.4009 38.4007 34.0571 38.7009 33.6644 38.9254L33.3443 39.0849V49.1025C34.0487 49.4654 34.6068 50.058 34.9253 50.7815C35.2438 51.505 35.3035 52.3155 35.0944 53.0775C34.8853 53.8396 34.42 54.5071 33.7763 54.9684C33.1327 55.4298 32.3496 55.6571 31.5579 55.6124C30.7663 55.5677 30.014 55.2536 29.4268 54.7227C28.8396 54.1918 28.4531 53.4762 28.3318 52.6955C28.2104 51.9147 28.3617 51.1162 28.7603 50.4332C29.1588 49.7502 29.7805 49.2242 30.5215 48.9431V39.1429C30.31 39.0411 30.1058 38.9248 29.9104 38.7949L21.1802 43.869V44.1444C21.1792 44.8101 20.985 45.4613 20.621 46.0195C20.257 46.5777 19.7387 47.0191 19.1286 47.2904V57.2211C19.7417 57.4893 20.2632 57.9297 20.6294 58.4883C20.9955 59.047 21.1905 59.6998 21.1905 60.367C21.1905 61.0342 20.9955 61.687 20.6294 62.2457C20.2632 62.8043 19.7417 63.2446 19.1286 63.5129V73.4436C19.7365 73.7179 20.2528 74.1599 20.6164 74.7175C20.98 75.275 21.1756 75.9247 21.1802 76.5895C21.1952 76.7729 21.1952 76.9571 21.1802 77.1404L29.8086 82.055C30.0038 81.9167 30.2136 81.8 30.4342 81.7071V71.6749C29.7094 71.3497 29.1189 70.7859 28.7619 70.0781C28.405 69.3704 28.3033 68.5618 28.4739 67.7882C28.6446 67.0146 29.0772 66.323 29.6991 65.8296C30.321 65.3362 31.0943 65.0711 31.8893 65.0786C32.5934 65.0763 33.2805 65.2943 33.8536 65.702L42.5838 60.6424C42.5695 60.5317 42.5695 60.4197 42.5838 60.309C42.5838 59.3939 42.9487 58.5163 43.5981 57.8692C44.2476 57.2221 45.1284 56.8586 46.0468 56.8586C46.9653 56.8586 47.8461 57.2221 48.4956 57.8692C49.145 58.5163 49.5099 59.3939 49.5099 60.309C49.517 60.4345 49.517 60.5604 49.5099 60.6859L58.2401 65.731C58.4355 65.6011 58.6397 65.4849 58.8512 65.3831V55.2349C58.2423 54.9647 57.725 54.5244 57.362 53.9674C56.9989 53.4104 56.8057 52.7604 56.8057 52.0962C56.8057 51.4321 56.9989 50.7821 57.362 50.2251C57.725 49.668 58.2423 49.2278 58.8512 48.9576V39.0559C58.1264 38.7306 57.5359 38.1668 57.1789 37.4591C56.8219 36.7513 56.7202 35.9428 56.8909 35.1691C57.0615 34.3955 57.4941 33.704 58.1161 33.2106C58.738 32.7172 59.5113 32.452 60.3063 32.4596C61.035 32.4585 61.7445 32.6925 62.3288 33.1265L71.059 28.2263C70.9823 27.3137 71.2714 26.4079 71.8631 25.707C72.4548 25.0061 73.3009 24.5671 74.2165 24.486C74.8238 24.4918 75.4197 24.6514 75.948 24.9499L76.2681 25.1529L84.7801 20.3978C84.6254 19.5869 84.7701 18.7476 85.1875 18.0347C85.4924 17.5114 85.9296 17.0768 86.4554 16.7741C86.9813 16.4715 87.5776 16.3113 88.1849 16.3095C88.7926 16.312 89.3893 16.4719 89.9164 16.7734C90.3169 16.9923 90.6698 17.2883 90.9545 17.6442C91.2393 18.0001 91.4502 18.4088 91.5751 18.8466C91.696 19.2826 91.7274 19.7384 91.6674 20.1868C91.6074 20.6352 91.4573 21.0669 91.2259 21.4561C91.0012 21.8491 90.7005 22.1937 90.3412 22.4702C89.982 22.7466 89.5713 22.9494 89.1328 23.0667C88.6944 23.184 88.237 23.2135 87.7871 23.1535C87.3372 23.0936 86.9036 22.9453 86.5116 22.7174L77.7086 27.545C77.7827 28.2598 77.6301 28.9798 77.2721 29.6036C76.9685 30.1452 76.5252 30.5962 75.9879 30.9097C75.4507 31.2232 74.8391 31.3879 74.2165 31.3868C73.6083 31.3876 73.0107 31.2276 72.485 30.9229C72.3605 30.8526 72.2435 30.7701 72.1358 30.6764L63.4055 35.5475V36.2724L71.903 41.187C72.4067 40.7658 73.0204 40.4961 73.6722 40.4097C74.3241 40.3232 74.9872 40.4235 75.584 40.6987C76.1808 40.974 76.6865 41.4128 77.0422 41.964C77.3978 42.5151 77.5886 43.1558 77.5922 43.811C77.6071 44.0185 77.6071 44.2269 77.5922 44.4344L86.2351 49.4215C86.8291 48.9589 87.5619 48.7087 88.3158 48.7111C89.0175 48.7102 89.7028 48.9226 90.2801 49.32L99.0104 44.3039C98.9826 43.6554 99.1389 43.0122 99.4615 42.4483C99.7699 41.9248 100.21 41.4904 100.738 41.1879C101.266 40.8854 101.864 40.7252 102.473 40.7231C103.077 40.7241 103.669 40.8841 104.19 41.187L104.307 41.2595L113.037 36.2289C113.03 36.1082 113.03 35.9872 113.037 35.8665C113.03 35.7554 113.03 35.644 113.037 35.533L104.409 30.6909C103.812 31.1217 103.094 31.3549 102.357 31.3578C101.751 31.356 101.157 31.1961 100.633 30.8939C100.108 30.5917 99.673 30.1578 99.3696 29.6355C99.0663 29.1133 98.9058 28.5209 98.904 27.9175C98.9023 27.3141 99.0593 26.7207 99.3596 26.1967C99.6645 25.6734 100.102 25.2388 100.628 24.9361C101.153 24.6335 101.75 24.4733 102.357 24.4715C102.96 24.4725 103.553 24.6326 104.074 24.9355C104.656 25.2554 105.13 25.7402 105.436 26.3286C105.741 26.917 105.865 27.5825 105.791 28.2408L114.419 33.0975C114.809 32.8006 115.259 32.5898 115.737 32.4791C116.215 32.3683 116.711 32.3601 117.193 32.4551C117.675 32.55 118.13 32.7459 118.53 33.0297C118.93 33.3135 119.265 33.6788 119.512 34.1013C119.76 34.5238 119.914 34.9939 119.965 35.4804C120.016 35.9669 119.963 36.4586 119.809 36.923C119.655 37.3875 119.403 37.8139 119.071 38.1741C118.739 38.5343 118.334 38.8201 117.882 39.0124V49.0301C118.49 49.303 119.006 49.745 119.368 50.3031C119.73 50.8611 119.923 51.5115 119.923 52.176C119.923 52.8405 119.73 53.4908 119.368 54.0489C119.006 54.6069 118.49 55.049 117.882 55.3219L117.868 55.3654ZM70.7535 76.6475C70.7391 76.4738 70.7391 76.2993 70.7535 76.1256L62.0232 71.2835C61.5105 71.6658 60.901 71.8983 60.2631 71.9549C59.6252 72.0116 58.9841 71.8901 58.4116 71.6041C57.8391 71.3182 57.3578 70.879 57.0217 70.3359C56.6856 69.7927 56.5079 69.1671 56.5086 68.529C56.5014 68.4035 56.5014 68.2776 56.5086 68.1521L47.7784 63.0925C47.2006 63.5282 46.495 63.7625 45.7704 63.7594C45.0307 63.7583 44.3112 63.5193 43.7188 63.078L34.9885 68.1086C34.9963 68.2486 34.9963 68.389 34.9885 68.529C34.9958 68.6497 34.9958 68.7707 34.9885 68.8914L43.7188 73.8785C44.2339 73.5011 44.8439 73.2731 45.4811 73.2199C46.1183 73.1667 46.7579 73.2903 47.3289 73.577C47.8999 73.8637 48.3801 74.3024 48.7163 74.8443C49.0524 75.3863 49.2314 76.0104 49.2334 76.6475C49.2411 76.7827 49.2411 76.9182 49.2334 77.0534L57.9636 82.0405C58.5626 81.589 59.2932 81.3447 60.0444 81.3447C60.7999 81.3447 61.5352 81.5888 62.1396 82.0405L70.7826 77.0099C70.7653 76.8899 70.7556 76.7688 70.7535 76.6475ZM6.99351 35.9534C7.008 36.0981 7.008 36.2437 6.99351 36.3884L15.6219 41.303C16.2174 40.856 16.9426 40.6143 17.6881 40.6143C18.4336 40.6143 19.1588 40.856 19.7542 41.303L28.4845 36.2724C28.4554 36.0413 28.4554 35.8076 28.4845 35.5765L19.7542 30.6619L19.3759 30.9084C18.8508 31.2 18.2602 31.3546 17.659 31.3578C16.9373 31.3569 16.2345 31.1285 15.651 30.7054L7.06626 35.5765C7.05108 35.7037 7.02677 35.8297 6.99351 35.9534ZM74.1292 121.952C73.521 121.951 72.9234 122.111 72.3977 122.416C71.6043 122.872 71.0239 123.623 70.7826 124.503C70.6819 124.916 70.6523 125.342 70.6953 125.765L61.965 130.795C61.7382 130.63 61.4943 130.489 61.2375 130.375V120.517L61.7031 120.328C62.3636 119.947 62.8793 119.36 63.1702 118.657C63.4611 117.954 63.5109 117.175 63.3118 116.441C63.1127 115.707 62.6759 115.06 62.0693 114.598C61.4626 114.137 60.7201 113.889 59.9571 113.891C59.3537 113.892 58.7613 114.052 58.2401 114.355C57.6931 114.668 57.2427 115.124 56.9377 115.674C56.6328 116.224 56.4851 116.847 56.5106 117.474C56.5361 118.102 56.7338 118.711 57.0824 119.234C57.431 119.758 57.9169 120.176 58.4875 120.444V130.476L58.2256 130.607L57.9782 130.766L49.4808 125.794C49.5244 125.381 49.4949 124.964 49.3934 124.561C49.1556 123.675 48.5748 122.919 47.7784 122.459C47.2012 122.124 46.538 121.964 45.8708 122C45.2037 122.037 44.5617 122.267 44.0243 122.662L35.2941 117.646C35.3405 117.228 35.3059 116.805 35.1922 116.399C35.0799 115.96 34.8804 115.548 34.6055 115.187C34.3306 114.826 33.9859 114.523 33.5917 114.297C33.0646 113.996 32.4679 113.836 31.8602 113.833C31.3282 113.833 30.8033 113.954 30.3261 114.189C29.849 114.423 29.4324 114.764 29.1088 115.184C28.7851 115.605 28.563 116.094 28.4598 116.614C28.3566 117.134 28.375 117.671 28.5136 118.182C28.7335 119.076 29.2982 119.847 30.085 120.328C30.6102 120.62 31.2008 120.774 31.802 120.777C32.5329 120.779 33.2457 120.55 33.839 120.125L42.5693 125.141C42.5386 125.56 42.573 125.98 42.6712 126.388C42.909 127.274 43.4898 128.03 44.2863 128.49C44.8146 128.789 45.4104 128.948 46.0177 128.954C46.7524 128.95 47.4664 128.711 48.0548 128.273L56.5523 133.173C56.4994 133.652 56.5478 134.136 56.6943 134.595C56.8408 135.054 57.0822 135.478 57.403 135.839C57.7237 136.199 58.1167 136.489 58.5566 136.689C58.9965 136.889 59.4735 136.995 59.9571 137C60.5604 136.999 61.1528 136.839 61.674 136.536C62.245 136.207 62.7099 135.723 63.014 135.14C63.3182 134.557 63.449 133.9 63.391 133.245L72.1212 128.186C72.7088 128.613 73.4161 128.846 74.1437 128.852C74.7519 128.853 75.3495 128.693 75.8752 128.389C76.5346 128.008 77.0498 127.422 77.3409 126.721C77.6321 126.02 77.683 125.242 77.4858 124.509C77.2886 123.776 76.8542 123.128 76.25 122.666C75.6458 122.203 74.9055 121.952 74.1437 121.952H74.1292Z" fill="#27A8E0"/>
<path d="M184.838 86.7981H175.847L159.551 61.7655C158.826 60.7021 158.162 59.5982 157.561 58.4591H157.489C157.634 59.8636 157.706 62.0143 157.706 64.9111V86.8566H149.282V46.9596H158.883L174.584 71.2167C175.295 72.2994 176.036 73.382 176.574 74.4647H176.675C176.458 72.6491 176.356 70.8215 176.37 68.9929V46.9596H184.78L184.838 86.7981ZM218.491 75.0792H199.987C200.277 79.2049 202.863 81.2678 207.743 81.2678C210.629 81.3341 213.473 80.5621 215.934 79.044V85.3789C212.77 86.9168 209.278 87.6454 205.767 87.5003C201.207 87.5003 197.668 86.2275 195.15 83.6818C193.84 82.252 192.83 80.5703 192.181 78.7374C191.532 76.9046 191.257 74.9586 191.374 73.0163C191.265 70.965 191.571 68.9129 192.273 66.9841C192.974 65.0554 194.057 63.29 195.455 61.7948C196.747 60.4562 198.298 59.3983 200.012 58.6863C201.725 57.9742 203.565 57.6231 205.419 57.6544C207.182 57.5439 208.949 57.8173 210.598 58.456C212.247 59.0947 213.74 60.0838 214.976 61.3559C217.391 64.1125 218.651 67.7048 218.491 71.3777V75.0792ZM210.401 69.6806C210.401 65.6133 208.774 63.5651 205.491 63.5651C204.797 63.5679 204.112 63.727 203.486 64.0307C202.86 64.3345 202.31 64.7752 201.875 65.3207C200.82 66.5564 200.166 68.0883 200.001 69.7098L210.401 69.6806ZM250.88 58.342L241.555 72.1238L250.822 86.7542H240.786L236.704 79.0879C236.37 78.4734 235.978 77.6248 235.513 76.4983H235.412C235.102 77.362 234.724 78.1987 234.279 79.0001L230.11 86.7981H220.103L229.645 72.6359L220.669 58.342H230.836L234.86 66.3156C235.313 67.1738 235.692 68.0695 235.993 68.9929H236.094C236.422 68.0568 236.82 67.1471 237.285 66.2717L241.396 58.342H250.88ZM283.24 85.1302C279.845 86.7999 276.094 87.6037 272.318 87.4711C269.807 87.5805 267.302 87.1491 264.971 86.2055C262.639 85.2619 260.534 83.8279 258.796 81.9993C255.31 78.0602 253.49 72.9041 253.727 67.6323C253.603 64.8034 254.045 61.9783 255.025 59.3244C256.006 56.6706 257.505 54.242 259.435 52.1827C261.318 50.2424 263.583 48.7197 266.084 47.7119C268.585 46.7042 271.267 46.2337 273.959 46.3305C277.146 46.2266 280.32 46.7843 283.284 47.9691V52.9435C280.402 51.3336 277.152 50.5115 273.858 50.5587C271.799 50.4802 269.748 50.8484 267.844 51.6386C265.939 52.4287 264.225 53.6221 262.819 55.138C259.873 58.5116 258.351 62.9108 258.578 67.3982C258.364 71.636 259.785 75.7929 262.543 79.0001C263.856 80.4443 265.465 81.5845 267.258 82.3423C269.05 83.1 270.985 83.4572 272.928 83.3892C276.544 83.4796 280.114 82.5578 283.24 80.7265V85.1302ZM293.001 51.1293C292.231 51.1377 291.489 50.8377 290.938 50.2954C290.657 50.0211 290.435 49.6908 290.288 49.3256C290.14 48.9603 290.07 48.5681 290.081 48.174C290.075 47.7805 290.148 47.3898 290.295 47.0253C290.442 46.6608 290.661 46.3299 290.938 46.0526C291.207 45.7773 291.528 45.5601 291.883 45.4142C292.237 45.2683 292.618 45.1968 293.001 45.204C293.393 45.1939 293.783 45.2639 294.147 45.4098C294.512 45.5556 294.843 45.7743 295.121 46.0526C295.402 46.3255 295.626 46.6528 295.779 47.0147C295.931 47.3767 296.01 47.766 296.01 48.1593C296.01 48.5527 295.931 48.9419 295.779 49.3039C295.626 49.6659 295.402 49.9931 295.121 50.2661C294.844 50.547 294.513 50.7684 294.149 50.9168C293.784 51.0651 293.394 51.1374 293.001 51.1293ZM295.208 86.7981H290.691V58.342H295.208V86.7981ZM317.474 86.5201C316.163 87.1737 314.709 87.4808 313.248 87.4125C308.309 87.4125 305.84 84.6328 305.84 79.0732V62.263H300.975V58.342H305.84V51.4073L310.357 49.9442V58.3567H317.474V62.263H310.357V78.3563C310.226 79.7878 310.569 81.2227 311.33 82.4382C311.732 82.8791 312.229 83.2197 312.784 83.4331C313.339 83.6464 313.935 83.7266 314.526 83.6672C315.571 83.6788 316.592 83.3448 317.431 82.7162L317.474 86.5201ZM346 58.342L333.001 91.3627C330.687 97.2149 327.433 100.141 323.24 100.141C322.26 100.156 321.282 100.033 320.335 99.7752V95.7518C321.193 96.0653 322.096 96.2334 323.008 96.2493C325.283 96.2493 326.992 94.8789 328.135 92.1381L330.328 86.7395L319.29 58.342H324.315L331.955 80.2876C332.042 80.5655 332.245 81.2824 332.536 82.4528H332.696C332.797 82.0139 332.972 81.3117 333.248 80.3461L341.28 58.4006L346 58.342Z" fill="white"/>
</svg>
