<svg width="13" height="12" viewBox="0 0 13 12" fill="none" xmlns="http://www.w3.org/2000/svg">
<path d="M11.978 5.04654H7.89564V0.988718C7.89564 0.855476 7.77109 0.74646 7.61887 0.74646H5.5431C5.39088 0.74646 5.26633 0.855476 5.26633 0.988718V5.04654H1.184C1.03177 5.04654 0.907227 5.15556 0.907227 5.2888V7.10573C0.907227 7.23898 1.03177 7.34799 1.184 7.34799H5.26633V11.4058C5.26633 11.5391 5.39088 11.6481 5.5431 11.6481H7.61887C7.77109 11.6481 7.89564 11.5391 7.89564 11.4058V7.34799H11.978C12.1302 7.34799 12.2547 7.23898 12.2547 7.10573V5.2888C12.2547 5.15556 12.1302 5.04654 11.978 5.04654Z" fill="#929292"/>
</svg>
