<svg width="34" height="32" viewBox="0 0 34 32" fill="none" xmlns="http://www.w3.org/2000/svg">
<rect x="1.38672" y="0.974106" width="31.2518" height="29.8983" rx="0.5" fill="white" stroke="#929292"/>
<path d="M23.0799 13.584L17.1136 8.10811C17.0282 8.03021 16.9127 7.9865 16.7923 7.9865C16.672 7.9865 16.5565 8.03021 16.4711 8.10811L10.5048 13.584C10.4173 13.664 10.3481 13.7593 10.3014 13.8643C10.2547 13.9693 10.2313 14.0818 10.2327 14.1952C10.2385 14.6629 10.6625 15.0363 11.1719 15.0363H11.7869V19.3641H21.7978V15.0363H22.4258C22.6733 15.0363 22.9062 14.9473 23.0813 14.7865C23.1675 14.7076 23.2359 14.6138 23.2823 14.5104C23.3288 14.4071 23.3524 14.2963 23.3519 14.1846C23.3519 13.9587 23.255 13.7447 23.0799 13.584ZM17.6027 18.4074H15.982V15.6967H17.6027V18.4074ZM20.7559 14.0796V18.4074H18.5288V15.3778C18.5288 15.0841 18.2698 14.8463 17.95 14.8463H15.6347C15.3149 14.8463 15.0558 15.0841 15.0558 15.3778V18.4074H12.8288V14.0796H11.4396L16.7938 9.16714L22.1465 14.0796H20.7559Z" fill="#929292"/>
<path d="M26.824 10.2919C26.2727 9.11589 25.4778 8.05111 24.4842 7.15764C23.4873 6.2561 22.3121 5.54055 21.0228 5.05008C19.6816 4.53537 18.2583 4.27531 16.7912 4.27531C15.3241 4.27531 13.9008 4.53537 12.5596 5.04737C11.2623 5.54311 10.0998 6.25285 9.09823 7.15493C8.10527 8.04891 7.31047 9.11356 6.75842 10.2892C6.18737 11.5082 5.89746 12.8031 5.89746 14.1359C5.89746 16.0484 6.39237 17.9528 7.3646 19.7895C8.14649 21.2659 9.23879 22.7043 10.6152 24.0724C12.9667 26.4075 15.4324 27.8351 16.1323 28.2171C16.331 28.3256 16.5576 28.3827 16.7883 28.3823C17.0167 28.3823 17.2422 28.3281 17.4442 28.2171C18.1441 27.8351 20.6099 26.4075 22.9614 24.0724C24.3378 22.707 25.4301 21.2659 26.212 19.7895C27.19 17.9555 27.6849 16.0539 27.6849 14.1386C27.6849 12.8058 27.395 11.5109 26.824 10.2919ZM16.7912 26.3045C14.8614 25.1695 8.00593 20.6753 8.00593 14.1386C8.00593 12.0283 8.91667 10.0454 10.5712 8.55005C12.2316 7.05199 14.4397 6.22576 16.7912 6.22576C19.1427 6.22576 21.3508 7.05199 23.0112 8.55275C24.6657 10.0454 25.5765 12.0283 25.5765 14.1386C25.5765 20.6753 18.721 25.1695 16.7912 26.3045Z" fill="#929292"/>
</svg>
