<svg width="34" height="32" viewBox="0 0 34 32" fill="none" xmlns="http://www.w3.org/2000/svg">
<rect x="1.38672" y="0.872375" width="31.2518" height="29.8983" rx="0.5" fill="white" stroke="#929292"/>
<path d="M25.652 16.8937C25.4828 17.1778 25.2586 17.4215 24.9939 17.609L18.0941 22.4964C17.1302 23.1792 15.8677 23.1792 14.9038 22.4964L8.00407 17.609C7.13619 16.9942 6.79963 15.8625 7.11549 14.8687L14.9174 20.3257C15.8153 20.9539 16.968 20.9931 17.8977 20.4435L18.0805 20.3257L25.8817 14.8681C26.089 15.5218 26.0271 16.2639 25.652 16.8937ZM25.8817 18.7578C26.089 19.4114 26.0271 20.1535 25.652 20.7833C25.4828 21.0675 25.2586 21.3112 24.9939 21.4986L18.0941 26.3861C17.1302 27.0688 15.8677 27.0688 14.9038 26.3861L8.00407 21.4986C7.13619 20.8839 6.79963 19.7522 7.11549 18.7584L14.9174 24.2154C15.8153 24.8435 16.968 24.8828 17.8977 24.3331L18.0805 24.2154L25.8817 18.7578ZM18.0805 6.40066L25.3399 11.4793C25.8639 11.8459 26.0056 12.589 25.6562 13.139C25.5726 13.2704 25.4651 13.3833 25.3399 13.4709L18.0805 18.5495C17.1228 19.2196 15.8751 19.2196 14.9174 18.5495L7.65811 13.4709C7.13403 13.1043 6.99241 12.3612 7.3418 11.8112C7.42532 11.6798 7.53283 11.5669 7.65811 11.4793L14.9174 6.40066C15.8751 5.73064 17.1228 5.73064 18.0805 6.40066ZM15.998 7.81497L15.8664 7.89438L9.3197 12.4751L15.8664 17.0558C16.2069 17.2941 16.639 17.3205 16.9999 17.1352L17.1316 17.0558L23.6771 12.4751L17.1316 7.89438C16.7911 7.65615 16.3589 7.62968 15.998 7.81497Z" fill="#929292"/>
</svg>
