<svg width="34" height="32" viewBox="0 0 34 32" fill="none" xmlns="http://www.w3.org/2000/svg">
<rect x="1.38672" y="1.2793" width="31.2518" height="29.8983" rx="0.5" fill="white" stroke="#929292"/>
<path d="M21.978 15.0465H17.8956V10.9887C17.8956 10.8555 17.7711 10.7465 17.6189 10.7465H15.5431C15.3909 10.7465 15.2663 10.8555 15.2663 10.9887V15.0465H11.184C11.0318 15.0465 10.9072 15.1556 10.9072 15.2888V17.1057C10.9072 17.239 11.0318 17.348 11.184 17.348H15.2663V21.4058C15.2663 21.5391 15.3909 21.6481 15.5431 21.6481H17.6189C17.7711 21.6481 17.8956 21.5391 17.8956 21.4058V17.348H21.978C22.1302 17.348 22.2547 17.239 22.2547 17.1057V15.2888C22.2547 15.1556 22.1302 15.0465 21.978 15.0465Z" fill="#929292"/>
</svg>
