<svg width="36" height="40" viewBox="0 0 36 40" fill="none" xmlns="http://www.w3.org/2000/svg">
<g filter="url(#filter0_d_1586_7946)">
<path d="M30.8935 9.98652C30.185 8.42546 29.1635 7.01205 27.8866 5.82605C26.6054 4.62933 25.0952 3.6795 23.4382 3.02843C21.7145 2.34521 19.8855 2 18 2C16.1145 2 14.2855 2.34521 12.5618 3.02483C10.8946 3.68289 9.40054 4.62501 8.11344 5.82245C6.83734 7.00912 5.81592 8.42237 5.10645 9.98292C4.37258 11.6011 4 13.3199 4 15.0891C4 17.6278 4.63602 20.1557 5.88548 22.5938C6.89032 24.5535 8.29409 26.463 10.0629 28.2789C13.0849 31.3786 16.2538 33.2736 17.1532 33.7807C17.4085 33.9247 17.6997 34.0005 17.9962 34C18.2898 34 18.5796 33.9281 18.8392 33.7807C19.7387 33.2736 22.9075 31.3786 25.9296 28.2789C27.6984 26.4666 29.1022 24.5535 30.107 22.5938C31.364 20.1593 32 17.635 32 15.0927C32 13.3235 31.6274 11.6047 30.8935 9.98652ZM18 31.2419C15.5199 29.7353 6.70968 23.7696 6.70968 15.0927C6.70968 12.2915 7.88011 9.65929 10.0065 7.67435C12.1403 5.68581 14.978 4.58906 18 4.58906C21.022 4.58906 23.8597 5.68581 25.9935 7.67794C28.1199 9.65929 29.2903 12.2915 29.2903 15.0927C29.2903 23.7696 20.4801 29.7353 18 31.2419Z" fill="#0078D4"/>
<path d="M18 31.2419C15.5199 29.7353 6.70968 23.7696 6.70968 15.0927C6.70968 12.2915 7.88011 9.65929 10.0065 7.67435C12.1403 5.68581 14.978 4.58906 18 4.58906C21.022 4.58906 23.8597 5.68581 25.9935 7.67794C28.1199 9.65929 29.2903 12.2915 29.2903 15.0927C29.2903 23.7696 20.4801 29.7353 18 31.2419Z" fill="#0078D4"/>
<path d="M28 15C28 20.5228 23.5228 25 18 25C12.4772 25 8 20.5228 8 15C8 9.47714 12.4772 4.99999 18 4.99999C23.5228 4.99999 28 9.47714 28 15Z" fill="#BAD80A"/>
<path d="M11.752 13.4875C11.5536 13.6273 11.3927 13.7995 11.2714 13.9915C11.2153 14.0803 11.1677 14.1733 11.1288 14.2693C11.1009 14.3381 11.0774 14.4084 11.0585 14.4798C11.0308 14.5845 11.0128 14.6915 11.0048 14.7993C10.9993 14.8729 10.9985 14.9469 11.0024 15.0209C11.0079 15.1241 11.0225 15.2273 11.0466 15.3291C11.0986 15.5493 11.1946 15.7633 11.3367 15.9585L12.7515 17.9023C13.2364 17.5606 13.348 16.8968 13.0007 16.4197L12.2147 15.3398C12.1567 15.2601 12.119 15.1751 12.0985 15.0885C12.0734 14.9823 12.0329 14.8835 11.9799 14.7939C12.0594 14.7259 12.1301 14.6451 12.1886 14.5525C12.2363 14.4771 12.2999 14.4085 12.3809 14.3514L14.2101 13.0624C14.695 12.7206 14.8066 12.0568 14.4593 11.5797L11.752 13.4875Z" fill="#0078D4"/>
<path d="M22.9952 10.6839C22.5103 11.0256 21.8356 10.9158 21.4883 10.4386L20.7023 9.35873C20.6443 9.27904 20.5746 9.21644 20.498 9.16954C20.4038 9.11193 20.3218 9.04239 20.2526 8.96414C20.1616 9.01633 20.0612 9.05618 19.9531 9.08088C19.8652 9.10099 19.7787 9.13818 19.6977 9.19525L17.8685 10.4843C17.3836 10.826 16.709 10.7162 16.3617 10.2391L19.0689 8.33133C19.2673 8.1915 19.4848 8.09703 19.7086 8.04584C19.8121 8.02217 19.917 8.00775 20.0219 8.00239C20.0971 7.99855 20.1723 7.99935 20.2471 8.00472C20.2684 8.00626 20.2898 8.00817 20.3111 8.01045C20.399 8.01987 20.4862 8.03562 20.5718 8.05757C20.6263 8.07153 20.6801 8.08799 20.733 8.10693C20.7507 8.11324 20.7683 8.11983 20.7858 8.12669C20.8834 8.16501 20.9779 8.21187 21.0682 8.26708C21.2633 8.38643 21.4383 8.54477 21.5804 8.74002L22.9952 10.6839Z" fill="#0078D4"/>
<path d="M24.2543 15.4773C24.4521 15.3367 24.6122 15.1638 24.7327 14.9713C24.7884 14.8823 24.8356 14.789 24.8741 14.6929C24.9017 14.6239 24.9249 14.5535 24.9435 14.482C24.9707 14.3772 24.9882 14.2702 24.9958 14.1623C25.0009 14.0886 25.0014 14.0146 24.9971 13.9406C24.9912 13.8374 24.9761 13.7343 24.9516 13.6326C24.8987 13.4126 24.8017 13.199 24.6587 13.0043L23.2354 11.0663C22.752 11.41 22.6434 12.0743 22.9927 12.5501L23.7834 13.6267C23.8418 13.7062 23.8799 13.7911 23.9008 13.8776C23.9263 13.9837 23.9673 14.0824 24.0207 14.1718C23.9415 14.2401 23.8712 14.3211 23.813 14.414C23.7657 14.4897 23.7024 14.5585 23.6217 14.6159L21.7981 15.9127C21.3147 16.2564 21.2061 16.9208 21.5555 17.3965L24.2543 15.4773Z" fill="#0078D4"/>
<path d="M13.0236 18.3279C13.507 17.9841 14.1821 18.0911 14.5315 18.5669L15.3223 19.6436C15.3806 19.723 15.4506 19.7854 15.5275 19.8319C15.6219 19.8892 15.7042 19.9584 15.7737 20.0363C15.8645 19.9838 15.9648 19.9435 16.0727 19.9183C16.1605 19.8979 16.2468 19.8603 16.3276 19.8029L18.1511 18.5062C18.6345 18.1624 19.3096 18.2694 19.659 18.7451L16.9602 20.6643C16.7624 20.8049 16.5453 20.9003 16.3218 20.9524C16.2184 20.9766 16.1136 20.9914 16.0087 20.9972C15.9335 21.0014 15.8583 21.0009 15.7835 20.9958C15.7621 20.9944 15.7408 20.9925 15.7194 20.9903C15.6315 20.9813 15.5442 20.9659 15.4585 20.9443C15.404 20.9306 15.3502 20.9143 15.2971 20.8956C15.2794 20.8894 15.2618 20.8829 15.2443 20.8761C15.1465 20.8382 15.0518 20.7917 14.9613 20.7368C14.7656 20.6183 14.5899 20.4607 14.447 20.266L13.0236 18.3279Z" fill="#0078D4"/>
</g>
<defs>
<filter id="filter0_d_1586_7946" x="0" y="0" width="36" height="40" filterUnits="userSpaceOnUse" color-interpolation-filters="sRGB">
<feFlood flood-opacity="0" result="BackgroundImageFix"/>
<feColorMatrix in="SourceAlpha" type="matrix" values="0 0 0 0 0 0 0 0 0 0 0 0 0 0 0 0 0 0 127 0" result="hardAlpha"/>
<feOffset dy="2"/>
<feGaussianBlur stdDeviation="2"/>
<feComposite in2="hardAlpha" operator="out"/>
<feColorMatrix type="matrix" values="0 0 0 0 0 0 0 0 0 0 0 0 0 0 0 0 0 0 0.25 0"/>
<feBlend mode="normal" in2="BackgroundImageFix" result="effect1_dropShadow_1586_7946"/>
<feBlend mode="normal" in="SourceGraphic" in2="effect1_dropShadow_1586_7946" result="shape"/>
</filter>
</defs>
</svg>
