<svg width="37" height="36" viewBox="0 0 37 36" fill="none" xmlns="http://www.w3.org/2000/svg">
<path d="M12.0508 2C12.0508 0.89543 11.1554 0 10.0508 0C8.94621 0 8.05078 0.89543 8.05078 2V7C8.05078 7.55228 7.60307 8 7.05078 8H2.05078C0.946212 8 0.0507812 8.89543 0.0507812 10C0.0507812 11.1046 0.946212 12 2.05078 12H7.05078C9.8122 12 12.0508 9.76142 12.0508 7V2ZM12.0508 34C12.0508 35.1046 11.1554 36 10.0508 36C8.94621 36 8.05078 35.1046 8.05078 34V29C8.05078 28.4477 7.60307 28 7.05078 28H2.05078C0.946212 28 0.0507812 27.1046 0.0507812 26C0.0507812 24.8954 0.946212 24 2.05078 24H7.05078C9.8122 24 12.0508 26.2386 12.0508 29V34ZM26.0508 0C24.9462 0 24.0508 0.89543 24.0508 2V7C24.0508 9.76142 26.2894 12 29.0508 12H34.0508C35.1553 12 36.0508 11.1046 36.0508 10C36.0508 8.89543 35.1553 8 34.0508 8H29.0508C28.4985 8 28.0508 7.55228 28.0508 7V2C28.0508 0.89543 27.1553 0 26.0508 0ZM24.0508 34C24.0508 35.1046 24.9462 36 26.0508 36C27.1553 36 28.0508 35.1046 28.0508 34V29C28.0508 28.4477 28.4985 28 29.0508 28H34.0508C35.1553 28 36.0508 27.1046 36.0508 26C36.0508 24.8954 35.1553 24 34.0508 24H29.0508C26.2894 24 24.0508 26.2386 24.0508 29V34Z" fill="#212121"/>
</svg>
