<svg width="39" height="39" viewBox="0 0 39 39" fill="none" xmlns="http://www.w3.org/2000/svg">
<path d="M13.0508 3.85931C13.0508 2.75474 12.1554 1.85931 11.0508 1.85931C9.94621 1.85931 9.05078 2.75474 9.05078 3.85931V8.85931C9.05078 9.4116 8.60307 9.85931 8.05078 9.85931H3.05078C1.94621 9.85931 1.05078 10.7547 1.05078 11.8593C1.05078 12.9639 1.94621 13.8593 3.05078 13.8593H8.05078C10.8122 13.8593 13.0508 11.6207 13.0508 8.85931V3.85931ZM13.0508 35.8593C13.0508 36.9639 12.1554 37.8593 11.0508 37.8593C9.94621 37.8593 9.05078 36.9639 9.05078 35.8593V30.8593C9.05078 30.307 8.60307 29.8593 8.05078 29.8593H3.05078C1.94621 29.8593 1.05078 28.9639 1.05078 27.8593C1.05078 26.7547 1.94621 25.8593 3.05078 25.8593H8.05078C10.8122 25.8593 13.0508 28.0979 13.0508 30.8593V35.8593ZM27.0508 1.85931C25.9462 1.85931 25.0508 2.75474 25.0508 3.85931V8.85931C25.0508 11.6207 27.2894 13.8593 30.0508 13.8593H35.0508C36.1553 13.8593 37.0508 12.9639 37.0508 11.8593C37.0508 10.7547 36.1553 9.85931 35.0508 9.85931H30.0508C29.4985 9.85931 29.0508 9.4116 29.0508 8.85931V3.85931C29.0508 2.75474 28.1553 1.85931 27.0508 1.85931ZM25.0508 35.8593C25.0508 36.9639 25.9462 37.8593 27.0508 37.8593C28.1553 37.8593 29.0508 36.9639 29.0508 35.8593V30.8593C29.0508 30.307 29.4985 29.8593 30.0508 29.8593H35.0508C36.1553 29.8593 37.0508 28.9639 37.0508 27.8593C37.0508 26.7547 36.1553 25.8593 35.0508 25.8593H30.0508C27.2894 25.8593 25.0508 28.0979 25.0508 30.8593V35.8593Z" fill="#525050" stroke="#525050" stroke-width="2"/>
</svg>
