<svg width="14" height="14" viewBox="0 0 14 14" fill="none" xmlns="http://www.w3.org/2000/svg">
<path d="M2.33333 3C2.33333 2.63181 2.63181 2.33333 3 2.33333H4.33333C4.70152 2.33333 5 2.03486 5 1.66667C5 1.29848 4.70152 1 4.33333 1H3C1.89543 1 1 1.89543 1 3V4.33333C1 4.70152 1.29848 5 1.66667 5C2.03486 5 2.33333 4.70152 2.33333 4.33333V3ZM2.33333 11C2.33333 11.3682 2.63181 11.6667 3 11.6667H4.33333C4.70152 11.6667 5 11.9651 5 12.3333C5 12.7015 4.70152 13 4.33333 13H3C1.89543 13 1 12.1046 1 11V9.66667C1 9.29848 1.29848 9 1.66667 9C2.03486 9 2.33333 9.29848 2.33333 9.66667V11ZM11 2.33333C11.3682 2.33333 11.6667 2.63181 11.6667 3V4.33333C11.6667 4.70152 11.9651 5 12.3333 5C12.7015 5 13 4.70152 13 4.33333V3C13 1.89543 12.1046 1 11 1H9.66667C9.29848 1 9 1.29848 9 1.66667C9 2.03486 9.29848 2.33333 9.66667 2.33333H11ZM11.6667 11C11.6667 11.3682 11.3682 11.6667 11 11.6667H9.66667C9.29848 11.6667 9 11.9651 9 12.3333C9 12.7015 9.29848 13 9.66667 13H11C12.1046 13 13 12.1046 13 11V9.66667C13 9.29848 12.7015 9 12.3333 9C11.9651 9 11.6667 9.29848 11.6667 9.66667V11Z" fill="#525050" stroke="#525050"/>
</svg>
