<svg width="12" height="12" viewBox="0 0 12 12" fill="none" xmlns="http://www.w3.org/2000/svg">
<path d="M1.33333 2C1.33333 1.63181 1.63181 1.33333 2 1.33333H3.33333C3.70152 1.33333 4 1.03486 4 0.666667C4 0.298477 3.70152 0 3.33333 0H2C0.895431 0 0 0.895431 0 2V3.33333C0 3.70152 0.298477 4 0.666667 4C1.03486 4 1.33333 3.70152 1.33333 3.33333V2ZM1.33333 10C1.33333 10.3682 1.63181 10.6667 2 10.6667H3.33333C3.70152 10.6667 4 10.9651 4 11.3333C4 11.7015 3.70152 12 3.33333 12H2C0.895431 12 0 11.1046 0 10V8.66667C0 8.29848 0.298477 8 0.666667 8C1.03486 8 1.33333 8.29848 1.33333 8.66667V10ZM10 1.33333C10.3682 1.33333 10.6667 1.63181 10.6667 2V3.33333C10.6667 3.70152 10.9651 4 11.3333 4C11.7015 4 12 3.70152 12 3.33333V2C12 0.895431 11.1046 0 10 0H8.66667C8.29848 0 8 0.298477 8 0.666667C8 1.03486 8.29848 1.33333 8.66667 1.33333H10ZM10.6667 10C10.6667 10.3682 10.3682 10.6667 10 10.6667H8.66667C8.29848 10.6667 8 10.9651 8 11.3333C8 11.7015 8.29848 12 8.66667 12H10C11.1046 12 12 11.1046 12 10V8.66667C12 8.29848 11.7015 8 11.3333 8C10.9651 8 10.6667 8.29848 10.6667 8.66667V10Z" fill="#212121"/>
</svg>
