<svg width="33" height="33" viewBox="0 0 33 37" fill="none" xmlns="http://www.w3.org/2000/svg">
<path d="M9.55084 0.859314C11.4513 0.859314 12.992 2.39998 12.992 4.30049V33.4181C12.992 35.3186 11.4513 36.8593 9.55084 36.8593H3.72731C1.82683 36.8593 0.286133 35.3186 0.286133 33.4181V4.30049C0.286133 2.39998 1.82683 0.859314 3.72731 0.859314H9.55084ZM28.6097 0.859314C30.5101 0.859314 32.0508 2.39998 32.0508 4.30049V33.4181C32.0508 35.3186 30.5101 36.8593 28.6097 36.8593H22.7861C20.8856 36.8593 19.345 35.3186 19.345 33.4181V4.30049C19.345 2.39998 20.8856 0.859314 22.7861 0.859314H28.6097Z" fill="#525050"/>
</svg>
